<?xml version="1.0" encoding="UTF-8"?>
<svg version="1.1" xmlns="http://www.w3.org/2000/svg" width="60" height="60">
<viewBox="0 0 512 512">
<path d="M0 0 C2.68620026 2.12068441 3.77073832 3.80441105 4.41796875 7.1796875 C5.62095085 28.57326111 -8.3611269 52.79342042 -18.03222656 71.15869141 C-19.03225943 73.06137756 -20.01280192 74.97333374 -20.9921875 76.88671875 C-30.19751509 94.71041947 -40.87017155 112.54883315 -60.6796875 119.3359375 C-63 120 -63 120 -65 120 C-65.17088135 120.51989502 -65.3417627 121.03979004 -65.51782227 121.57543945 C-66.93275996 125.85310349 -68.38861749 130.11169715 -69.90234375 134.35546875 C-80.53255152 164.54939709 -82.3543812 194.39442637 -82.19561768 226.20227051 C-82.18476927 228.93884115 -82.1851914 231.67536265 -82.18563557 234.41195107 C-82.18506926 247.44496861 -82.11540419 260.44158678 -81.21826172 273.44775391 C-80.89962751 278.63357912 -80.90835858 283.80698621 -81 289 C-82.97854258 289.19397476 -84.9578648 289.38001321 -86.9375 289.5625 C-88.03964844 289.66691406 -89.14179687 289.77132813 -90.27734375 289.87890625 C-91.17582031 289.91886719 -92.07429687 289.95882813 -93 290 C-101.578407 281.421593 -96.295374 238.60802349 -96.3125 227.4375 C-96.30485503 192.39239028 -96.07526081 154.15052161 -80 122 C-80.93457031 121.97421875 -81.86914062 121.9484375 -82.83203125 121.921875 C-91.65259098 121.54100687 -99.92741811 120.39664401 -108.52661133 118.37207031 C-115.89502088 116.52325104 -115.89502088 116.52325104 -123.16796875 117.953125 C-123.83441406 118.38109375 -124.50085938 118.8090625 -125.1875 119.25 C-136.21104486 125.75720959 -147.76494463 127.69342506 -160.38671875 128.55078125 C-161.63026123 128.63626221 -162.87380371 128.72174316 -164.1550293 128.80981445 C-165.09386963 128.87257568 -166.03270996 128.93533691 -167 129 C-166.68361572 129.68698975 -166.36723145 130.37397949 -166.04125977 131.08178711 C-150.03335055 166.01313539 -139.36533694 199.30123107 -138 238 C-137.95875 239.13824219 -137.9175 240.27648437 -137.875 241.44921875 C-137.75256432 248.16022435 -138.1390921 254.76606364 -138.8125 261.4375 C-138.88251221 262.18306152 -138.95252441 262.92862305 -139.0246582 263.69677734 C-139.5804258 268.63163897 -140.84659585 272.52209932 -143 277 C-144.65376718 276.26766027 -146.29787304 275.51347286 -147.9375 274.75 C-148.85402344 274.33234375 -149.77054688 273.9146875 -150.71484375 273.484375 C-153 272 -153 272 -153.875 270.2109375 C-154.03913931 267.3077234 -153.58023585 264.73777472 -153.0625 261.875 C-149.49439636 237.94915436 -152.26307332 210.19374443 -159 187 C-159.21575684 186.24299805 -159.43151367 185.48599609 -159.65380859 184.70605469 C-165.62762286 164.26122617 -174.81105317 144.73758704 -183.91381836 125.52929688 C-185 123 -185 123 -185 121 C-185.72703125 120.74347656 -186.4540625 120.48695313 -187.203125 120.22265625 C-213.97979932 108.51721063 -231.94878393 69.78439938 -242.00341797 44.47412109 C-243.51411336 40.36534712 -244.83681454 36.22171372 -246 32 C-246.1959375 31.30390625 -246.391875 30.6078125 -246.59375 29.890625 C-247.65988434 24.92899981 -247.76098511 20.49153082 -245.4375 15.9375 C-243 14 -243 14 -239.75 13.25 C-234.42434168 14.31513166 -231.73174779 17.21703215 -228 21 C-227.09507812 21.90363281 -226.19015625 22.80726563 -225.2578125 23.73828125 C-224.51273437 24.48464844 -223.76765625 25.23101562 -223 26 C-222.25556641 24.83984375 -222.25556641 24.83984375 -221.49609375 23.65625 C-208.8974936 4.33999018 -208.8974936 4.33999018 -198 0 C-192.70983738 -0.93440372 -188.5623763 -0.73696995 -183.6875 1.5625 C-166.39769666 17.24394954 -164.05361514 44.30058965 -162.87109375 66.41015625 C-162.48480615 81.83590794 -164.85568393 98.82682071 -175 111 C-165.83642038 116.3640466 -154.5405808 114.73284784 -144.625 112.3125 C-136.82306783 110.24063697 -129.08755389 107.57057352 -124.05859375 100.87109375 C-117.45473854 89.19859691 -116.3744177 75.60365502 -119.0625 62.625 C-120.45846248 57.65432987 -122.49588941 54.98434602 -126.04296875 51.34765625 C-134.89041862 40.73424832 -142.71056691 21.73348578 -144 8 C-143 5.1875 -143 5.1875 -141 3 C-137.625 1.9375 -137.625 1.9375 -134 2 C-128.94850273 5.06988098 -126.83242381 9.32890526 -124.25 14.4375 C-123.82605957 15.25992187 -123.40211914 16.08234375 -122.96533203 16.9296875 C-119.70878514 23.35342849 -116.73208579 29.88997227 -113.875 36.5 C-113.48473633 37.40161865 -113.09447266 38.3032373 -112.69238281 39.23217773 C-110 45.61527695 -110 45.61527695 -110 49 C-93.32766717 42.74787519 -85.7611835 18.6637304 -78.90454102 3.8190918 C-78 2 -78 2 -77 1 C-70.53846154 0.64102564 -70.53846154 0.64102564 -67 3 C-65.7809757 10.70853604 -69.10097744 16.47979498 -72.5 23.25 C-73.04809326 24.3630249 -73.59618652 25.4760498 -74.16088867 26.62280273 C-77.92872574 34.15792383 -81.81363068 41.33342505 -87 48 C-87.87205078 49.14082031 -87.87205078 49.14082031 -88.76171875 50.3046875 C-93.21959389 55.77435003 -98.26232384 59.75410795 -105 62 C-104.835 62.886875 -104.67 63.77375 -104.5 64.6875 C-102.63061642 78.40547658 -104.54743894 92.27735752 -110 105 C-108.84371094 105.14308594 -107.68742188 105.28617187 -106.49609375 105.43359375 C-103.6735558 105.78571235 -100.85362306 106.15187864 -98.03515625 106.53515625 C-85.92679557 108.56718273 -85.92679557 108.56718273 -74 107 C-72.42601923 104.45538747 -72.42601923 104.45538747 -70.99609375 101.26171875 C-70.71693619 100.67390625 -70.43777863 100.08609375 -70.15016174 99.48046875 C-69.55017081 98.21428571 -68.95478715 96.94591137 -68.36352539 95.67562866 C-67.42994186 93.67127306 -66.4835951 91.67343712 -65.53320312 89.67700195 C-64.26434797 87.0103676 -62.99912413 84.34207655 -61.73779297 81.671875 C-28.41591055 11.19467935 -28.41591055 11.19467935 -8.4375 -0.5 C-5.20741476 -1.16258159 -3.15018051 -1.00537676 0 0 Z M-205.15234375 22.66796875 C-207.176875 25.40127445 -209.11048608 28.17198578 -211 31 C-211.47050781 31.68835938 -211.94101562 32.37671875 -212.42578125 33.0859375 C-214.00077093 35.56478724 -215.0524379 37.31481143 -214.82421875 40.296875 C-213.79608099 43.66877703 -212.12130996 46.42239833 -210.25 49.375 C-200.50156164 65.1981448 -191.56559031 81.51068532 -183 98 C-180.70963082 97.13454953 -180.70963082 97.13454953 -179.96484375 94.33984375 C-177.1973336 85.31399661 -177.1973336 85.31399661 -176 76 C-175.96003906 75.08347656 -175.92007813 74.16695312 -175.87890625 73.22265625 C-175.48424384 54.44136876 -177.84568742 31.15211706 -187.9375 14.875 C-189.83591048 12.78648604 -189.83591048 12.78648604 -192.390625 12.70703125 C-198.05085474 13.34253609 -201.75041664 18.45106092 -205.15234375 22.66796875 Z M-13 23 C-24.65185939 37.32914747 -33.23296238 54.82079781 -42 71 C-42.39848145 71.73379883 -42.79696289 72.46759766 -43.20751953 73.22363281 C-50.77041003 86.80314932 -50.77041003 86.80314932 -57 101 C-56.67 101.66 -56.34 102.32 -56 103 C-37.79258893 89.54234834 -27.99575667 64.22035731 -19.3125 44 C-18.55477295 42.23825439 -18.55477295 42.23825439 -17.78173828 40.44091797 C-15.36180162 34.67722028 -13.28298222 29.12230114 -12 23 C-12.33 23 -12.66 23 -13 23 Z M-223 53 C-222 55 -222 55 -222 55 Z M-222 55 C-220.50322031 60.13411529 -218.24793651 64.5048602 -215.625 69.125 C-215.23828125 69.82753906 -214.8515625 70.53007812 -214.453125 71.25390625 C-212.33236902 75.01860394 -210.28162745 78.10797216 -207 81 C-208.60369364 74.92815363 -211.82425635 69.93496211 -215.0625 64.625 C-215.61744141 63.69816406 -216.17238281 62.77132812 -216.74414062 61.81640625 C-218.81187721 58.3696562 -218.81187721 58.3696562 -221 55 C-221.33 55 -221.66 55 -222 55 Z M-207 81 C-206 83 -206 83 -206 83 Z M-205 84 C-204 86 -204 86 -204 86 Z " fill="#F2A82E" transform="translate(664,341)"/>
<path d="M0 0 C1.77480492 -0.00855011 1.77480492 -0.00855011 3.58546448 -0.01727295 C6.0856946 -0.02667389 8.58593684 -0.03323728 11.08618164 -0.03710938 C14.80964537 -0.04669666 18.53252753 -0.07771864 22.25585938 -0.109375 C86.54038966 -0.39160496 151.47554946 15.47515179 199.44140625 60.203125 C200.23160156 60.92757812 201.02179688 61.65203125 201.8359375 62.3984375 C241.09139869 99.81478985 254.29208475 154.90296846 256.44140625 207.203125 C256.4760498 207.98510254 256.51069336 208.76708008 256.54638672 209.57275391 C258.68036712 264.53931747 241.18229651 317.02662185 203.69140625 357.578125 C202.77430605 358.55940621 201.85636644 359.53990374 200.9375 360.51953125 C198.81080803 362.80597473 196.77068064 365.13299584 194.75390625 367.515625 C191.9027281 370.80805691 188.79495351 373.60859553 185.4765625 376.421875 C183.36772097 378.2676173 181.40542083 380.20451917 179.44140625 382.203125 C176.27361096 385.41406147 172.99170197 388.4137528 169.57421875 391.35546875 C166.29846706 394.19325364 163.09558686 397.11086683 159.8828125 400.01953125 C157.74419522 401.93231055 155.57026146 403.78908233 153.37890625 405.640625 C139.09945821 418.18572712 134.45925925 431.43045772 129.44140625 449.203125 C129.04993635 450.57434935 128.65806266 451.94545855 128.265625 453.31640625 C127.99363281 454.26902344 127.72164062 455.22164062 127.44140625 456.203125 C126.02438112 456.06081692 124.60779665 455.91411754 123.19140625 455.765625 C122.4025 455.68441406 121.61359375 455.60320312 120.80078125 455.51953125 C118.61775986 455.22677507 116.56408805 454.78248081 114.44140625 454.203125 C118.28522069 433.23073391 124.3269116 415.53436671 139.44140625 400.203125 C139.95219727 399.6786377 140.46298828 399.15415039 140.98925781 398.61376953 C146.29534899 393.16927308 151.67000673 387.84044525 157.45703125 382.90234375 C160.65359881 380.16512546 163.76131373 377.32998947 166.8828125 374.5078125 C168.52873057 373.02522981 170.18184426 371.55057638 171.84375 370.0859375 C182.61259952 360.55629109 192.60287018 350.56469022 201.44140625 339.203125 C202.25222656 338.19765625 203.06304688 337.1921875 203.8984375 336.15625 C239.02332018 292.23830072 246.81717825 236.77230307 240.79638672 182.15576172 C235.37687464 137.0776468 217.67733572 92.26983773 182.06640625 62.515625 C180.20188272 61.0645622 178.32655591 59.62728861 176.44140625 58.203125 C175.4771875 57.43871094 174.51296875 56.67429688 173.51953125 55.88671875 C118.27544469 13.25504288 36.1059149 7.56664949 -30.71484375 16.05078125 C-80.56593931 23.03633139 -130.51400477 42.95587737 -161.96142578 84.03564453 C-165.34742257 88.63802704 -168.50021346 93.37806669 -171.55859375 98.203125 C-171.95820313 98.8317041 -172.3578125 99.4602832 -172.76953125 100.10791016 C-190.98240511 129.28365063 -199.63527118 166.04019005 -200.55859375 200.203125 C-200.57905762 200.86618652 -200.59952148 201.52924805 -200.62060547 202.21240234 C-201.85452812 247.29646878 -186.90502219 289.26527163 -158.55859375 324.203125 C-157.76453125 325.20214844 -156.97046875 326.20117188 -156.15234375 327.23046875 C-144.83292944 341.21484228 -131.81928638 354.23650915 -117.55859375 365.203125 C-116.38810704 366.14793074 -115.22032844 367.09609731 -114.0546875 368.046875 C-107.88159036 373.06936764 -101.6525285 377.9047155 -95.12109375 382.453125 C-83.13831541 390.91456861 -74.84192593 400.96861704 -70.55859375 415.203125 C-72.34879985 415.87370387 -74.14080864 416.5394719 -75.93359375 417.203125 C-76.93132812 417.574375 -77.9290625 417.945625 -78.95703125 418.328125 C-81.55859375 419.203125 -81.55859375 419.203125 -83.55859375 419.203125 C-83.98269531 418.2853125 -84.40679687 417.3675 -84.84375 416.421875 C-90.38381515 404.70078505 -96.18374651 397.82460868 -107.1015625 390.54296875 C-156.36465649 357.56725189 -198.61248048 307.21983868 -210.87109375 248.265625 C-221.27881692 194.17659646 -211.02622677 132.43217663 -180.55859375 86.203125 C-177.455541 81.67848845 -174.06935965 77.41786246 -170.55859375 73.203125 C-170.09340332 72.63255371 -169.62821289 72.06198242 -169.14892578 71.47412109 C-133.22671521 27.46251196 -78.8584411 7.16206675 -23.55859375 1.203125 C-22.74997894 1.11579605 -21.94136414 1.0284671 -21.10824585 0.93849182 C-14.06195775 0.23645126 -7.07848922 0.02729349 0 0 Z " fill="#FDDC1C" transform="translate(520.55859375,168.796875)"/>
<path d="M0 0 C4.93118269 3.48790971 8.5680539 7.03910339 10.5625 12.8125 C10.92508891 17.66459882 11.29477407 22.67559112 9.703125 27.3203125 C9.26737734 30.09364184 9.26737734 30.09364184 11.84375 32.64453125 C12.90291925 33.65266429 13.9768369 34.64545553 15.0625 35.625 C16.1932422 36.69598159 17.32216011 37.76889266 18.44921875 38.84375 C18.99497559 39.35808594 19.54073242 39.87242187 20.10302734 40.40234375 C21.81243421 42.05398879 23.35608794 43.7974963 24.875 45.625 C28.3769676 49.74953962 32.22114522 53.50821499 36.0625 57.3125 C44.98369983 66.14760863 44.98369983 66.14760863 48.61791992 70.72167969 C50.59803187 72.97584764 50.59803187 72.97584764 53.50439453 75.01000977 C57.81390545 78.34698045 61.84584662 81.72374387 63.12161255 87.22225952 C63.64372469 92.97031324 63.26656354 98.71031242 62.91503906 104.46060181 C62.63812123 109.66525396 62.67308135 114.84921626 62.76171875 120.05859375 C62.74618454 121.00478577 62.73065033 121.95097778 62.71464539 122.92584229 C62.8253191 130.15502167 65.08530548 134.41865757 70.0625 139.625 C72.28216714 141.52090196 72.28216714 141.52090196 74.625 142.76953125 C83.3230842 148.37250562 90.65281957 155.64353824 98.0625 162.8125 C99.18800262 163.8901915 99.18800262 163.8901915 100.33624268 164.98965454 C115.25163243 179.47220889 115.25163243 179.47220889 115.64160156 190.2277832 C115.44557457 193.19046395 115.15905178 196.12475269 114.8203125 199.07421875 C114.38924817 202.86977674 114.3603371 203.4896123 116.4921875 206.89453125 C119.39559855 209.19071921 122.35348546 210.972665 125.5625 212.8125 C127.74511385 214.51628551 129.80267792 216.3522041 131.875 218.1875 C136.30320468 221.97905973 140.82900408 225.61821279 145.4375 229.1875 C151.17902846 233.64011391 156.68718077 238.31688924 162.15209961 243.10351562 C166.65704234 247.04600448 171.23459466 250.86780856 175.90234375 254.6171875 C176.78019531 255.34164063 177.65804687 256.06609375 178.5625 256.8125 C179.24779785 257.18544189 179.9330957 257.55838379 180.63916016 257.94262695 C183.37953333 259.69572661 184.83018967 261.02985877 186.5625 263.8125 C187.92594818 270.14556041 187.31122821 276.82471686 187.0625 283.25 C187.02233706 285.04874922 186.9858412 286.8475843 186.953125 288.64648438 C186.86530947 293.03728648 186.72747127 297.42394699 186.5625 301.8125 C187.71878906 301.98845703 187.71878906 301.98845703 188.8984375 302.16796875 C193.79034375 303.35149446 196.85260922 307.74766383 199.5625 311.8125 C201.52256086 317.69268258 201.39065527 324.41520843 199.375 330.25 C195.88709029 335.18118269 192.33589661 338.8180539 186.5625 340.8125 C180.05256283 341.46618007 174.08595074 341.71933101 168.5625 337.8125 C164.77242492 334.5512726 162.34395489 331.50053918 160.5625 326.8125 C160.375 322.9375 160.375 322.9375 160.5625 319.8125 C159.99660156 319.55218994 159.43070313 319.29187988 158.84765625 319.02368164 C156.34716894 317.69836993 154.24214113 316.16021787 152 314.43359375 C150.69047363 313.42969604 150.69047363 313.42969604 149.35449219 312.40551758 C148.43313477 311.69419678 147.51177734 310.98287598 146.5625 310.25 C144.65129621 308.78352237 142.7398398 307.31737391 140.828125 305.8515625 C139.91224609 305.14805664 138.99636719 304.44455078 138.05273438 303.71972656 C135.15465971 301.50014232 132.2386763 299.30737171 129.3125 297.125 C128.42433594 296.43019531 127.53617188 295.73539063 126.62109375 295.01953125 C124.14558841 293.23324706 121.74384048 291.75873457 119.09765625 290.26171875 C109.64016929 284.54893952 109.64016929 284.54893952 106.5625 279.8125 C105.28559734 274.46976566 105.55409651 269.17114824 105.73754883 263.71533203 C105.97968504 257.29909225 105.97968504 257.29909225 103.65234375 251.4453125 C101.07929934 249.20214558 98.50100298 247.53653499 95.5625 245.8125 C94.93859375 245.14476562 94.3146875 244.47703125 93.671875 243.7890625 C88.32620129 238.10647658 82.40298261 238.13294364 75 237.875 C71.51946976 237.80195867 68.04357508 237.77672467 64.5625 237.8125 C64.44519531 238.58335937 64.32789063 239.35421875 64.20703125 240.1484375 C63.02350554 245.04034375 58.62733617 248.10260922 54.5625 250.8125 C48.68231742 252.77256086 41.95979157 252.64065527 36.125 250.625 C31.19381731 247.13709029 27.5569461 243.58589661 25.5625 237.8125 C24.90881993 231.30256283 24.65566899 225.33595074 28.5625 219.8125 C32.53393737 215.19704576 36.19787047 212.15035138 42.40234375 211.52734375 C49.97059727 211.31217709 54.58962142 212.10988311 60.3125 217.3125 C64.5625 222.03472222 64.5625 222.03472222 64.5625 225.8125 C65.3373877 225.7496582 66.11227539 225.68681641 66.91064453 225.62207031 C91.83786951 223.86564031 91.83786951 223.86564031 98.98291016 229.64990234 C101.14111517 231.75291686 103.17278211 233.92397055 105.12744141 236.21728516 C107.44368648 238.79202917 110.0891048 240.79993117 112.8125 242.9375 C115.16626513 244.83861799 117.42365129 246.67365129 119.5625 248.8125 C119.78955078 251.33447266 119.78955078 251.33447266 119.7578125 254.4765625 C119.74814453 256.15878906 119.74814453 256.15878906 119.73828125 257.875 C119.71314453 259.6384375 119.71314453 259.6384375 119.6875 261.4375 C119.67847656 262.62085938 119.66945313 263.80421875 119.66015625 265.0234375 C119.63652812 267.95332523 119.60358514 270.8828134 119.5625 273.8125 C120.17552979 274.10946777 120.78855957 274.40643555 121.42016602 274.71240234 C124.01446805 276.04458752 126.17723683 277.67069924 128.5 279.4375 C130.06814453 280.62666016 130.06814453 280.62666016 131.66796875 281.83984375 C132.96628588 282.83054567 134.264446 283.82145335 135.5625 284.8125 C137.28764193 286.12645766 139.01291158 287.44024764 140.73828125 288.75390625 C143.49307676 290.85176106 146.24735547 292.95027307 148.99975586 295.05126953 C154.16898917 298.99650345 159.35238632 302.92139085 164.5625 306.8125 C165.08021973 306.42900391 165.59793945 306.04550781 166.13134766 305.65039062 C171.3125 301.8125 171.3125 301.8125 173.5625 301.8125 C175.48182373 282.50761819 175.48182373 282.50761819 169.54296875 265.109375 C166.48803812 262.24766221 163.08712274 260.01911213 159.46484375 257.9375 C156.79375522 256.35788296 154.5313436 254.40054385 152.1875 252.375 C151.32125 251.67246094 150.455 250.96992187 149.5625 250.24609375 C139.99519616 242.48511681 130.49760003 234.63991616 121.11181641 226.66040039 C112.45821223 218.89266257 112.45821223 218.89266257 102.9296875 212.36108398 C99.72576931 208.91165103 100.04421828 206.56815203 100.12304688 201.99609375 C100.16494141 201.02800781 100.20683594 200.05992187 100.25 199.0625 C100.28383789 197.58716797 100.28383789 197.58716797 100.31835938 196.08203125 C100.37721195 193.6573053 100.45936569 191.23568017 100.5625 188.8125 C99.35303711 188.87010498 98.14357422 188.92770996 96.89746094 188.98706055 C92.35835303 189.18797235 87.81962583 189.3130688 83.27734375 189.41674805 C81.32159097 189.47166502 79.36628136 189.5464348 77.41210938 189.64233398 C59.42819511 190.50199451 59.42819511 190.50199451 53.02984619 185.07246399 C50.70487814 182.78402124 48.62726797 180.33593836 46.5625 177.8125 C44.02977022 174.99235546 44.02977022 174.99235546 41.5625 172.8125 C39.0620747 172.89024152 39.0620747 172.89024152 36.5625 173.8125 C28.14910225 174.40132461 22.45759195 174.16409075 15.875 168.5 C10.89453464 162.71189161 10.06413253 158.15181652 10.27734375 150.65234375 C10.90035138 144.44787047 13.94704576 140.78393737 18.5625 136.8125 C24.08595074 132.90566899 30.05256283 133.15881993 36.5625 133.8125 C42.32233366 135.80226072 46.06001454 139.38487303 49.25 144.5390625 C50.82314127 148.46255175 50.43041678 150.72048247 49.875 154.875 C49.8151568 161.59073678 51.23480524 165.40270094 55.9375 170.25 C62.6127807 176.4993542 69.59284057 176.79395644 78.4375 176.625 C82.49286142 176.45692357 86.52086146 176.17726724 90.5625 175.8125 C89.82586121 175.14732361 89.08922241 174.48214722 88.33026123 173.79681396 C81.66151138 167.74675989 75.17440139 161.55576453 68.83405304 155.15921783 C67.33801108 153.65004944 65.83854912 152.14434668 64.33831787 150.63934326 C61.16015191 147.44993447 57.9860168 144.25653393 54.8125 141.0625 C51.11318183 137.33938119 47.41212095 133.6180268 43.70681 129.90087128 C42.24475154 128.43243318 40.78578558 126.96097286 39.32696533 125.48931885 C30.74482467 115.51451634 30.74482467 115.51451634 19.5625 109.8125 C18.5725 110.1425 17.5825 110.4725 16.5625 110.8125 C10.05640504 111.30069183 4.08283056 111.71712405 -1.4375 107.8125 C-6.05295424 103.84106263 -9.09964862 100.17712953 -9.72265625 93.97265625 C-9.93586747 86.47318348 -9.10546536 81.91310839 -4.125 76.125 C1.66310839 71.14453464 6.22318348 70.31413253 13.72265625 70.52734375 C19.92712953 71.15035138 23.59106263 74.19704576 27.5625 78.8125 C30.64660858 83.06644286 30.50846019 85.86732643 30.04296875 90.88671875 C29.99095719 96.49849222 30.91515516 99.10572053 34.71875 103.23828125 C36.46773181 104.90178651 38.25028658 106.53061308 40.0625 108.125 C40.96871094 108.97255859 41.87492187 109.82011719 42.80859375 110.69335938 C45.03326499 112.76581627 47.28209369 114.8018226 49.5625 116.8125 C51.524016 101.73695381 51.524016 101.73695381 47.3828125 87.75 C44.98654811 84.95623518 42.24041379 82.61061826 39.37255859 80.31347656 C36.1092194 77.60737873 33.21573674 74.52351342 30.25 71.5 C29.05550276 70.31428231 27.86022229 69.12935298 26.6640625 67.9453125 C24.38316483 65.66441483 22.206919 63.34127328 20.125 60.875 C17.80268883 58.17803365 15.41106038 55.60611423 12.8828125 53.1015625 C12.20661865 52.42859131 11.5304248 51.75562012 10.83374023 51.06225586 C9.46354136 49.7061844 8.09072697 48.35274971 6.71508789 47.00219727 C6.08078857 46.37627686 5.44648926 45.75035645 4.79296875 45.10546875 C4.21957764 44.5436792 3.64618652 43.98188965 3.05541992 43.40307617 C1.5625 41.8125 1.5625 41.8125 -0.4375 38.8125 C-4.20176172 38.59637014 -7.87591744 38.8214368 -11.640625 39 C-16.9986705 38.73540516 -20.11389036 36.95141993 -24.125 33.5 C-29.10546536 27.71189161 -29.93586747 23.15181652 -29.72265625 15.65234375 C-29.09964862 9.44787047 -26.05295424 5.78393737 -21.4375 1.8125 C-15.20820182 -2.59358896 -7.02670166 -2.42740603 0 0 Z M-17.4375 13.8125 C-18.86412219 16.66574437 -18.74783868 18.64704549 -18.4375 21.8125 C-16.63756226 24.51240662 -15.353727 26.3543865 -12.4375 27.8125 C-8.56535818 28.24273798 -6.91253629 28.12919086 -3.625 25.9375 C-1.04483184 23.43105093 -0.52032036 22.55788327 -0.125 19 C-0.50914358 15.0817355 -1.73006317 13.59956733 -4.4375 10.8125 C-9.7356842 8.1634079 -13.4459938 9.93503683 -17.4375 13.8125 Z M2.5625 85.8125 C1.13587781 88.66574437 1.25216132 90.64704549 1.5625 93.8125 C3.36243774 96.51240662 4.646273 98.3543865 7.5625 99.8125 C11.43464182 100.24273798 13.08746371 100.12919086 16.375 97.9375 C18.95516816 95.43105093 19.47967964 94.55788327 19.875 91 C19.49085642 87.0817355 18.26993683 85.59956733 15.5625 82.8125 C10.2643158 80.1634079 6.5540062 81.93503683 2.5625 85.8125 Z M22.5625 148.8125 C21.13587781 151.66574437 21.25216132 153.64704549 21.5625 156.8125 C23.36243774 159.51240662 24.646273 161.3543865 27.5625 162.8125 C31.43464182 163.24273798 33.08746371 163.12919086 36.375 160.9375 C38.95516816 158.43105093 39.47967964 157.55788327 39.875 154 C39.49085642 150.0817355 38.26993683 148.59956733 35.5625 145.8125 C30.2643158 143.1634079 26.5540062 144.93503683 22.5625 148.8125 Z M37.5625 226.8125 C36.13587781 229.66574437 36.25216132 231.64704549 36.5625 234.8125 C38.36243774 237.51240662 39.646273 239.3543865 42.5625 240.8125 C46.43464182 241.24273798 48.08746371 241.12919086 51.375 238.9375 C53.95516816 236.43105093 54.47967964 235.55788327 54.875 232 C54.49085642 228.0817355 53.26993683 226.59956733 50.5625 223.8125 C45.2643158 221.1634079 41.5540062 222.93503683 37.5625 226.8125 Z M172.5625 315.8125 C171.13587781 318.66574437 171.25216132 320.64704549 171.5625 323.8125 C173.36243774 326.51240662 174.646273 328.3543865 177.5625 329.8125 C181.43464182 330.24273798 183.08746371 330.12919086 186.375 327.9375 C188.95516816 325.43105093 189.47967964 324.55788327 189.875 321 C189.49085642 317.0817355 188.26993683 315.59956733 185.5625 312.8125 C180.2643158 310.1634079 176.5540062 311.93503683 172.5625 315.8125 Z " fill="#7DC017" transform="translate(231.4375,493.1875)"/>
<path d="M0 0 C4.93118269 3.48790971 8.5680539 7.03910339 10.5625 12.8125 C11.21618007 19.32243717 11.46933101 25.28904926 7.5625 30.8125 C4.28522999 34.6212192 1.32968691 37.16565361 -3.4375 38.8125 C-13.39470734 39.54759584 -13.39470734 39.54759584 -17.5 38.0703125 C-19.62202866 37.57875879 -19.62202866 37.57875879 -21.8046875 39.2890625 C-23.04605469 40.35253906 -23.04605469 40.35253906 -24.3125 41.4375 C-25.13492188 42.13101563 -25.95734375 42.82453125 -26.8046875 43.5390625 C-28.10792969 44.66441406 -28.10792969 44.66441406 -29.4375 45.8125 C-30.51515625 46.49441406 -31.5928125 47.17632813 -32.703125 47.87890625 C-34.80887281 49.62975275 -35.38068319 50.56699286 -36.00634766 53.27050781 C-36.2523689 56.23600613 -36.3201148 59.14951534 -36.3125 62.125 C-36.333125 63.15173828 -36.35375 64.17847656 -36.375 65.23632812 C-36.42199913 67.76253129 -36.44195095 70.28594998 -36.4375 72.8125 C-23.62976116 73.27233434 -15.94041176 72.16756721 -6.23681641 63.34082031 C-2.76310483 60.39028646 1.08454644 57.95793291 4.875 55.4375 C13.05009256 49.92315328 21.00348931 44.16192767 28.79199219 38.11352539 C30.5625 36.8125 30.5625 36.8125 32.55957031 35.60327148 C34.42980371 34.44578808 36.0251613 33.38676665 37.5625 31.8125 C38.29463117 28.44196427 38.29463117 28.44196427 37.8125 24.875 C37.36594409 19.47519894 37.72032063 16.48036165 40.5625 11.8125 C44.53393737 7.19704576 48.19787047 4.15035138 54.40234375 3.52734375 C61.90181652 3.31413253 66.46189161 4.14453464 72.25 9.125 C77.23046536 14.91310839 78.06086747 19.47318348 77.84765625 26.97265625 C77.22464862 33.17712953 74.17795424 36.84106263 69.5625 40.8125 C64.02128548 44.73189564 58.08500885 44.26898783 51.5625 43.8125 C50.77359375 43.53664063 49.9846875 43.26078125 49.171875 42.9765625 C44.84518368 42.70452502 42.21461516 45.40431726 38.875 47.9375 C38.13314453 48.48083984 37.39128906 49.02417969 36.62695312 49.58398438 C35.056324 50.73525157 33.49016826 51.89264303 31.92822266 53.05566406 C28.16839106 55.84779493 24.36278351 58.57584785 20.5625 61.3125 C19.07551019 62.38930821 17.58853105 63.46613118 16.1015625 64.54296875 C8.96670568 69.6959209 1.76394767 74.75325512 -5.4375 79.8125 C-4.28576645 82.28050047 -3.38966435 83.86033565 -1.4375 85.8125 C0.59717434 86.08936065 0.59717434 86.08936065 2.9140625 86.0078125 C3.76484375 86.00136719 4.615625 85.99492188 5.4921875 85.98828125 C6.38164063 85.97152344 7.27109375 85.95476562 8.1875 85.9375 C9.0846875 85.92847656 9.981875 85.91945313 10.90625 85.91015625 C13.12526586 85.8865497 15.34375077 85.8536231 17.5625 85.8125 C18.00980469 84.87792969 18.45710937 83.94335938 18.91796875 82.98046875 C21.78260439 77.46213263 25.67760078 73.84546519 31.5625 71.8125 C38.07243717 71.15881993 44.03904926 70.90566899 49.5625 74.8125 C54.17795424 78.78393737 57.22464862 82.44787047 57.84765625 88.65234375 C58.06086747 96.15181652 57.23046536 100.71189161 52.25 106.5 C46.46189161 111.48046536 41.90181652 112.31086747 34.40234375 112.09765625 C28.1361671 111.46845282 24.66018616 108.36548462 20.5625 103.8125 C19.9025 102.8225 19.2425 101.8325 18.5625 100.8125 C16.02369597 100.49990432 16.02369597 100.49990432 13.06640625 100.72265625 C-6.50948886 101.18928931 -6.50948886 101.18928931 -11.60546875 97.15625 C-14.57776436 94.16204894 -18.4375 90.20646506 -18.4375 85.8125 C-30.36633165 84.91557011 -40.1677617 85.05566377 -49.625 93 C-51.82404718 94.90627169 -53.99179624 96.84026817 -56.14306641 98.80029297 C-60.1619041 102.32479396 -64.49118952 105.4226915 -68.8125 108.5625 C-69.61582764 109.15828857 -70.41915527 109.75407715 -71.24682617 110.36791992 C-74.56253162 112.81318602 -77.70016703 115.05143128 -81.4375 116.8125 C-81.32229004 117.76390869 -81.20708008 118.71531738 -81.08837891 119.69555664 C-78.17881111 145.9690626 -78.17881111 145.9690626 -83.43554688 153.78222656 C-88.48792327 158.5035852 -94.34909004 161.56428705 -100.62329102 164.3762207 C-103.50839792 165.84868396 -105.55135713 167.5647657 -107.98828125 169.6796875 C-114.58625816 174.47042093 -121.90199152 173.20926598 -129.66220093 172.8515625 C-144.70075561 172.26134929 -155.44640198 172.99706708 -167.06274414 183.52099609 C-168.54289081 184.94702783 -170.00369751 186.3935081 -171.44091797 187.86279297 C-174.25993715 190.61562828 -177.40585164 192.71731249 -180.6875 194.875 C-184.10805229 197.16019948 -185.22408515 198.04726769 -186.33959961 202.04711914 C-186.44094403 205.94496215 -185.94000122 207.61395803 -183.47221375 210.61416626 C-176.4722676 217.85156829 -170.22534003 219.27243873 -160.28089905 219.56791687 C-157.05880957 219.58208569 -153.84598241 219.52020151 -150.625 219.4375 C-149.523909 219.42510284 -148.42281799 219.41270569 -147.2883606 219.39993286 C-130.17336133 219.14382824 -118.32981174 217.19147015 -104.99365234 205.86621094 C-100.2262274 202.03587869 -94.91302965 199.03284817 -89.6875 195.875 C-87.7733262 194.68273405 -85.86175182 193.486282 -83.953125 192.28515625 C-83.05013672 191.71941895 -82.14714844 191.15368164 -81.21679688 190.57080078 C-79.25733683 189.33116346 -77.30623979 188.07825825 -75.36132812 186.81591797 C-74.37068359 186.17412598 -73.38003906 185.53233398 -72.359375 184.87109375 C-71.4631543 184.28513428 -70.56693359 183.6991748 -69.64355469 183.09545898 C-67.4375 181.8125 -67.4375 181.8125 -65.4375 181.8125 C-65.5317627 180.8380896 -65.5317627 180.8380896 -65.62792969 179.84399414 C-67.1822265 161.40065565 -67.1822265 161.40065565 -64.25976562 157.06542969 C-61.78843817 154.9284583 -58.95085753 153.48248893 -56.09765625 151.9140625 C-53.09409702 150.00638649 -53.09409702 150.00638649 -52.74609375 146.3984375 C-52.81716493 142.66522469 -52.81716493 142.66522469 -53.30859375 139.14453125 C-53.50851872 133.97677375 -51.41808154 130.95209476 -48.125 127.125 C-42.33689161 122.14453464 -37.77681652 121.31413253 -30.27734375 121.52734375 C-24.07287047 122.15035138 -20.40893737 125.19704576 -16.4375 129.8125 C-12.53066899 135.33595074 -12.78381993 141.30256283 -13.4375 147.8125 C-15.4319461 153.58589661 -19.06881731 157.13709029 -24 160.625 C-29.4618109 162.5118074 -36.31668495 162.98473366 -41.80859375 160.921875 C-45.72583852 160.75889899 -47.88899218 162.34008264 -50.87988281 164.76660156 C-53.37955583 168.04987114 -52.66064212 170.76661516 -52.16967773 174.70483398 C-51.5354267 180.00124199 -51.51883144 184.78257025 -53.4375 189.8125 C-59.36049107 196.37187891 -67.92983465 199.98780107 -75.73193359 203.89453125 C-81.77747524 206.96176187 -87.45339175 210.64518352 -93.1875 214.25 C-96.2439182 216.12662098 -99.30075504 217.99840434 -102.38232422 219.83349609 C-105.49658088 221.75246719 -105.49658088 221.75246719 -108.24658203 224.23291016 C-119.2817705 233.10440527 -132.06765271 232.39633484 -145.67675781 232.31542969 C-148.43431909 232.30125953 -151.18157186 232.34293489 -153.9375 232.43847656 C-179.11616446 233.3034227 -179.11616446 233.3034227 -188.05142212 225.28991699 C-190.55853042 222.68066434 -192.87039431 219.97767836 -195.00064087 217.05212402 C-195.47480438 216.6430481 -195.9489679 216.23397217 -196.4375 215.8125 C-198.47030567 216.04259592 -198.47030567 216.04259592 -200.4375 216.8125 C-208.84360337 217.42129857 -214.55507077 217.15319492 -221.125 211.5 C-226.10546536 205.71189161 -226.93586747 201.15181652 -226.72265625 193.65234375 C-226.09964862 187.44787047 -223.05295424 183.78393737 -218.4375 179.8125 C-212.91892831 175.90912002 -206.94314771 176.15030202 -200.4375 176.8125 C-196.05560871 178.40591501 -193.03682928 180.90419387 -189.4375 183.8125 C-188.10072142 182.86606949 -186.76475124 181.9184848 -185.43188477 180.96655273 C-184.19408796 180.09034446 -182.94798145 179.22579133 -181.69506836 178.37133789 C-178.03181193 175.83449208 -174.7814197 173.24067581 -171.6484375 170.06640625 C-160.72501871 159.6705992 -151.12409664 158.71728744 -136.625 159.0625 C-134.94058212 159.14804165 -133.25640006 159.23837537 -131.57250977 159.33374023 C-120.8492903 159.81105924 -114.69882002 158.44937221 -106.47802734 151.36621094 C-103.70308007 149.03555825 -101.29926183 147.71702998 -98.05859375 146.1875 C-95.85033194 144.90165095 -95.85033194 144.90165095 -94.4375 142.8125 C-93.75235212 138.18043768 -94.03734268 133.6995808 -94.36373901 129.05477905 C-95.32731104 113.19846216 -95.32731104 113.19846216 -91.92089844 107.09521484 C-87.9466603 102.74375081 -83.07050419 99.93987761 -77.90625 97.19238281 C-73.93497633 94.97267961 -70.4522343 92.17010418 -66.875 89.375 C-65.57127124 88.39931547 -64.26537154 87.42652321 -62.95703125 86.45703125 C-59.25422466 83.6910913 -55.62908743 80.83270602 -52.0390625 77.921875 C-50.4375 76.8125 -50.4375 76.8125 -48.4375 76.8125 C-48.51605225 75.38369507 -48.51605225 75.38369507 -48.59619141 73.92602539 C-48.77871119 70.35424701 -48.89250639 66.78286792 -48.98681641 63.20776367 C-49.03677231 61.66799395 -49.10477252 60.12869065 -49.19189453 58.59057617 C-49.89336574 45.87744202 -49.89336574 45.87744202 -46.34716797 40.84765625 C-42.34030105 37.17947119 -37.93984334 34.49552967 -33.3125 31.6875 C-30.98553253 30.12616684 -30.98553253 30.12616684 -29.4375 27.8125 C-28.92786511 23.81010876 -29.04387896 20.45214179 -29.4140625 16.43359375 C-29.44853928 11.10693064 -27.53327624 8.08596969 -24.125 4.125 C-17.03349264 -1.97699471 -8.86032836 -3.06084071 0 0 Z M-17.4375 13.8125 C-18.86412219 16.66574437 -18.74783868 18.64704549 -18.4375 21.8125 C-16.63756226 24.51240662 -15.353727 26.3543865 -12.4375 27.8125 C-8.56535818 28.24273798 -6.91253629 28.12919086 -3.625 25.9375 C-1.04483184 23.43105093 -0.52032036 22.55788327 -0.125 19 C-0.50914358 15.0817355 -1.73006317 13.59956733 -4.4375 10.8125 C-9.7356842 8.1634079 -13.4459938 9.93503683 -17.4375 13.8125 Z M49.5625 18.8125 C48.13587781 21.66574437 48.25216132 23.64704549 48.5625 26.8125 C50.36243774 29.51240662 51.646273 31.3543865 54.5625 32.8125 C58.43464182 33.24273798 60.08746371 33.12919086 63.375 30.9375 C65.95516816 28.43105093 66.47967964 27.55788327 66.875 24 C66.49085642 20.0817355 65.26993683 18.59956733 62.5625 15.8125 C57.2643158 13.1634079 53.5540062 14.93503683 49.5625 18.8125 Z M29.5625 86.8125 C28.13587781 89.66574437 28.25216132 91.64704549 28.5625 94.8125 C30.36243774 97.51240662 31.646273 99.3543865 34.5625 100.8125 C38.43464182 101.24273798 40.08746371 101.12919086 43.375 98.9375 C45.95516816 96.43105093 46.47967964 95.55788327 46.875 92 C46.49085642 88.0817355 45.26993683 86.59956733 42.5625 83.8125 C37.2643158 81.1634079 33.5540062 82.93503683 29.5625 86.8125 Z M-41.4375 136.8125 C-42.86412219 139.66574437 -42.74783868 141.64704549 -42.4375 144.8125 C-40.63756226 147.51240662 -39.353727 149.3543865 -36.4375 150.8125 C-32.56535818 151.24273798 -30.91253629 151.12919086 -27.625 148.9375 C-25.04483184 146.43105093 -24.52032036 145.55788327 -24.125 142 C-24.50914358 138.0817355 -25.73006317 136.59956733 -28.4375 133.8125 C-33.7356842 131.1634079 -37.4459938 132.93503683 -41.4375 136.8125 Z M-214.4375 191.8125 C-215.86412219 194.66574437 -215.74783868 196.64704549 -215.4375 199.8125 C-213.63756226 202.51240662 -212.353727 204.3543865 -209.4375 205.8125 C-205.56535818 206.24273798 -203.91253629 206.12919086 -200.625 203.9375 C-198.04483184 201.43105093 -197.52032036 200.55788327 -197.125 197 C-197.50914358 193.0817355 -198.73006317 191.59956733 -201.4375 188.8125 C-206.7356842 186.1634079 -210.4459938 187.93503683 -214.4375 191.8125 Z " fill="#7DC017" transform="translate(820.4375,575.1875)"/>
<path d="M0 0 C4.93118269 3.48790971 8.5680539 7.03910339 10.5625 12.8125 C11.23881975 19.54790351 11.18982246 24.91810101 7.5625 30.8125 C7.5625 34.45502139 8.35771542 35.18071348 10.58984375 37.97265625 C11.21697266 38.76607422 11.84410156 39.55949219 12.49023438 40.37695312 C13.15345703 41.20130859 13.81667969 42.02566406 14.5 42.875 C15.80214369 44.51063503 17.10298991 46.14730408 18.40234375 47.78515625 C18.98363037 48.50968994 19.56491699 49.23422363 20.16381836 49.98071289 C23.26592108 54.04338992 22.64421454 58.00897158 22.59765625 62.9140625 C22.60137142 64.78516174 22.60730257 66.65625764 22.61523438 68.52734375 C22.62576458 71.477271 22.6251659 74.42478826 22.58666992 77.37451172 C22.0690802 88.4809744 22.0690802 88.4809744 25.26513672 98.80957031 C27.26596702 100.82385392 29.17432263 102.29378186 31.5625 103.8125 C32.91044699 104.96225119 34.24579266 106.12710105 35.5625 107.3125 C36.5525 108.16328125 36.5525 108.16328125 37.5625 109.03125 C40.3527275 111.51629637 42.94194653 114.18225038 45.5625 116.84375 C47.50141002 118.75236455 49.49949551 120.53960552 51.5625 122.3125 C55.07391648 125.33012353 58.31557402 128.54609081 61.5625 131.84375 C63.50141002 133.75236455 65.49949551 135.53960552 67.5625 137.3125 C71.07391648 140.33012353 74.31557402 143.54609081 77.5625 146.84375 C80.11778276 149.35910646 82.81853616 151.67439663 85.5390625 154.0078125 C88.45918754 156.61224834 91.17628555 159.40202374 93.8984375 162.2109375 C95.48672733 163.89878724 95.48672733 163.89878724 97.5625 164.8125 C98.62524477 152.13160923 98.62524477 152.13160923 93.8828125 140.8359375 C90.7159991 137.49510777 87.18767433 134.63626175 83.5625 131.8125 C81.52034661 130.03119309 79.49898163 128.23025378 77.484375 126.41796875 C75.53885483 124.72163144 75.53885483 124.72163144 73.078125 123.23828125 C69.91641966 120.89645913 68.38119431 119.35091207 66.5625 115.8125 C65.43539497 107.88477249 66.01068741 99.77275038 66.5625 91.8125 C65.79164063 91.69519531 65.02078125 91.57789063 64.2265625 91.45703125 C59.33465625 90.27350554 56.27239078 85.87733617 53.5625 81.8125 C51.60243914 75.93231742 51.73434473 69.20979157 53.75 63.375 C57.23790971 58.44381731 60.78910339 54.8069461 66.5625 52.8125 C73.07243717 52.15881993 79.03904926 51.90566899 84.5625 55.8125 C89.17795424 59.78393737 92.22464862 63.44787047 92.84765625 69.65234375 C93.06282291 77.22059727 92.26511689 81.83962142 87.0625 87.5625 C82.34027778 91.8125 82.34027778 91.8125 78.5625 91.8125 C77.53359874 101.69916993 77.53359874 101.69916993 80.88848877 110.76062012 C84.52150862 114.68689 88.74082118 117.98839809 92.89108276 121.34860229 C110.70437195 136.01199988 110.70437195 136.01199988 112.40559387 147.11645508 C113.19652508 156.39111731 112.2138828 165.67867304 110.5625 174.8125 C111.1998407 174.78807327 111.8371814 174.76364655 112.49383545 174.73847961 C119.17764837 174.49353733 125.86017188 174.32858814 132.54736328 174.20825195 C135.03649743 174.15321404 137.52528052 174.0783546 140.01318359 173.98266602 C162.96314512 173.12261736 162.96314512 173.12261736 169.25982666 178.44389343 C171.5310827 180.76358187 173.53609474 183.27906537 175.5625 185.8125 C177.26928578 187.26085527 179.01644863 188.6639423 180.8125 190 C181.53953125 190.55042969 182.2665625 191.10085938 183.015625 191.66796875 C183.52609375 192.04566406 184.0365625 192.42335938 184.5625 192.8125 C187.52329957 174.82155397 187.52329957 174.82155397 182.31835938 157.90673828 C179.50502636 154.07822547 176.28942629 150.7299803 172.875 147.4375 C172.33255646 146.89876251 171.79011292 146.36002502 171.23123169 145.80496216 C165.56744088 140.30540975 160.64279217 136.32951815 152.44921875 135.7265625 C151.40338623 135.74412598 150.35755371 135.76168945 149.2800293 135.77978516 C144.28961888 135.83986197 141.51816208 133.63481389 137.875 130.5 C132.89453464 124.71189161 132.06413253 120.15181652 132.27734375 112.65234375 C132.90035138 106.44787047 135.94704576 102.78393737 140.5625 98.8125 C146.08595074 94.90566899 152.05256283 95.15881993 158.5625 95.8125 C164.33589661 97.8069461 167.88709029 101.44381731 171.375 106.375 C173.89363082 113.66577343 173.05937072 120.65550803 170.5625 127.8125 C171.41070312 128.4302832 172.25890625 129.04806641 173.1328125 129.68457031 C197.4333239 147.90405886 197.4333239 147.90405886 199.88867188 161.45703125 C201.35060831 174.1735866 200.12685706 187.1566795 198.5625 199.8125 C200.19638672 200.00779297 200.19638672 200.00779297 201.86328125 200.20703125 C207.49074614 201.12810523 210.46549973 203.35971585 213.875 207.875 C217.22169223 213.7007235 217.04189855 219.2403817 216.5625 225.8125 C214.5680539 231.58589661 210.93118269 235.13709029 206 238.625 C199.8055838 240.76488923 193.3194162 240.76488923 187.125 238.625 C182.19381731 235.13709029 178.5569461 231.58589661 176.5625 225.8125 C175.84726366 218.77770974 176.15916522 213.05194709 179.5625 206.8125 C178.89605469 206.27882813 178.22960937 205.74515625 177.54296875 205.1953125 C176.16044922 204.07769531 176.16044922 204.07769531 174.75 202.9375 C173.30558306 201.77446299 171.85812292 200.61487525 170.39111328 199.48046875 C168.5625 197.8125 168.5625 197.8125 166.71435547 195.26953125 C163.18435478 190.98044771 160.27335356 188.2608018 154.7593689 187.34893799 C145.01153709 186.70639226 135.18910327 187.28294424 125.44287109 187.74658203 C101.34694882 188.77370176 101.34694882 188.77370176 93.63948059 182.12910461 C91.2361037 179.69901073 89.02555088 177.17863208 86.91192627 174.49346924 C85.18022203 172.33629946 83.22716814 170.52428576 81.16015625 168.69140625 C79.98160574 167.58611351 78.8032159 166.48064942 77.625 165.375 C76.28255656 164.11588064 74.94010851 162.8567662 73.59765625 161.59765625 C72.93137207 160.97262207 72.26508789 160.34758789 71.57861328 159.70361328 C68.24057332 156.57253342 64.90148654 153.44257036 61.5625 150.3125 C60.22916159 149.06250541 58.89582826 147.81250541 57.5625 146.5625 C56.5725 145.634375 56.5725 145.634375 55.5625 144.6875 C49.5625 139.0625 49.5625 139.0625 47.56152344 137.18652344 C46.23152656 135.93969197 44.90144876 134.69294683 43.57128906 133.44628906 C40.18623068 130.27352243 36.80270092 127.09915167 33.421875 123.921875 C32.73351562 123.27541016 32.04515625 122.62894531 31.3359375 121.96289062 C30.05414297 120.75904306 28.77283245 119.55467978 27.4921875 118.34960938 C26.89148438 117.78564453 26.29078125 117.22167969 25.671875 116.640625 C25.05199707 116.033396 24.43211914 115.42616699 23.79345703 114.80053711 C21.50084957 112.67153468 21.50084957 112.67153468 18.42138672 110.67016602 C14.23617905 107.68011147 10.29930662 104.75932569 9.00146484 99.56866455 C8.41166037 94.11310798 8.71941428 88.66730434 9.03308105 83.20062256 C10.36426041 63.48752253 10.36426041 63.48752253 2.3125 46.1875 C-2.02002643 41.52122927 -6.0436198 38.968771 -12.4375 37.9375 C-14.4374557 37.89375856 -16.43745154 37.85177164 -18.4375 37.8125 C-23.35097767 35.39886185 -25.72571631 32.53301234 -28.4375 27.8125 C-30.39756086 21.93231742 -30.26565527 15.20979157 -28.25 9.375 C-21.21697686 -0.56823961 -11.70395495 -4.04318444 0 0 Z M-17.4375 13.8125 C-18.86412219 16.66574437 -18.74783868 18.64704549 -18.4375 21.8125 C-16.63756226 24.51240662 -15.353727 26.3543865 -12.4375 27.8125 C-8.56535818 28.24273798 -6.91253629 28.12919086 -3.625 25.9375 C-1.04483184 23.43105093 -0.52032036 22.55788327 -0.125 19 C-0.50914358 15.0817355 -1.73006317 13.59956733 -4.4375 10.8125 C-9.7356842 8.1634079 -13.4459938 9.93503683 -17.4375 13.8125 Z M64.5625 67.8125 C63.13587781 70.66574437 63.25216132 72.64704549 63.5625 75.8125 C65.36243774 78.51240662 66.646273 80.3543865 69.5625 81.8125 C73.43464182 82.24273798 75.08746371 82.12919086 78.375 79.9375 C80.95516816 77.43105093 81.47967964 76.55788327 81.875 73 C81.49085642 69.0817355 80.26993683 67.59956733 77.5625 64.8125 C72.2643158 62.1634079 68.5540062 63.93503683 64.5625 67.8125 Z M144.5625 110.8125 C143.13587781 113.66574437 143.25216132 115.64704549 143.5625 118.8125 C145.36243774 121.51240662 146.646273 123.3543865 149.5625 124.8125 C153.43464182 125.24273798 155.08746371 125.12919086 158.375 122.9375 C160.95516816 120.43105093 161.47967964 119.55788327 161.875 116 C161.49085642 112.0817355 160.26993683 110.59956733 157.5625 107.8125 C152.2643158 105.1634079 148.5540062 106.93503683 144.5625 110.8125 Z M188.5625 214.8125 C187.13587781 217.66574437 187.25216132 219.64704549 187.5625 222.8125 C189.36243774 225.51240662 190.646273 227.3543865 193.5625 228.8125 C197.43464182 229.24273798 199.08746371 229.12919086 202.375 226.9375 C204.95516816 224.43105093 205.47967964 223.55788327 205.875 220 C205.49085642 216.0817355 204.26993683 214.59956733 201.5625 211.8125 C196.2643158 209.1634079 192.5540062 210.93503683 188.5625 214.8125 Z " fill="#7DC017" transform="translate(302.4375,511.1875)"/>
<path d="M0 0 C5.62190491 3.35174881 9.56334243 8.22193737 11.5625 14.4375 C12.39974732 22.04087387 12.40834412 29.2172498 7.5625 35.4375 C4.11360454 39.09071392 0.49816199 42.17488879 -4.4375 43.4375 C-5.13359375 43.36144531 -5.8296875 43.28539062 -6.546875 43.20703125 C-9.67946497 43.02246783 -11.50807581 43.22743187 -14.4375 44.4375 C-18.53756824 48.30031786 -21.65008955 53.18332451 -24.65454102 57.91674805 C-26.4375 60.4375 -26.4375 60.4375 -28.98413086 63.04614258 C-38.9240712 73.69166469 -38.14180018 86.7886265 -38.01586914 100.60961914 C-37.99283519 103.35437672 -38.02667671 106.0879925 -38.1184082 108.83129883 C-38.77916426 128.77869016 -35.03839418 142.39861612 -23.29501343 158.79379272 C-20.71802277 162.46149647 -18.49472239 166.28949797 -16.2890625 170.1875 C-15.56933646 171.4241261 -14.84804159 172.65984078 -14.125 173.89453125 C-13.43732129 175.07541678 -12.74982272 176.25640723 -12.0625 177.4375 C-10.61894539 179.91769694 -9.17338767 182.39670986 -7.7265625 184.875 C-7.11506348 185.92558594 -6.50356445 186.97617187 -5.87353516 188.05859375 C-4.6431681 190.31180948 -4.6431681 190.31180948 -3.4375 191.4375 C-1.95111008 191.59405027 -0.45800873 191.68816943 1.03515625 191.75390625 C1.93427734 191.79580078 2.83339844 191.83769531 3.75976562 191.88085938 C4.70529297 191.92017578 5.65082031 191.95949219 6.625 192 C8.0490918 192.06477539 8.0490918 192.06477539 9.50195312 192.13085938 C11.85531353 192.23729276 14.20878354 192.33931008 16.5625 192.4375 C16.83707031 191.68726563 17.11164063 190.93703125 17.39453125 190.1640625 C19.59731888 185.02176896 22.9177715 181.47804252 27.625 178.5 C34.19801777 176.16292701 42.61606001 176.15178062 49 179 C54.62190491 182.35174881 58.56334243 187.22193737 60.5625 193.4375 C61.39974732 201.04087387 61.40834412 208.2172498 56.5625 214.4375 C52.20249624 219.05579782 47.96140868 222.06322837 41.51171875 222.7734375 C33.50104681 222.86937369 27.73596389 222.38215557 21.78125 216.75390625 C18.99162828 213.69453337 17.48335409 211.48737337 16.5625 207.4375 C15.69560547 207.50557861 14.82871094 207.57365723 13.93554688 207.64379883 C10.68565504 207.86678379 7.43967242 208.02888416 4.18457031 208.15161133 C2.7828686 208.21660049 1.38203575 208.305054 -0.01660156 208.41821289 C-4.69430979 208.78689104 -8.87803875 208.7801376 -13.4375 207.4375 C-16.73532847 204.17249069 -18.58686221 200.51837503 -20.50683594 196.36514282 C-22.09820975 193.06900146 -24.04746601 189.99227383 -25.953125 186.87109375 C-26.74042456 185.54749649 -27.52555976 184.22260958 -28.30859375 182.89648438 C-28.70159668 182.23221436 -29.09459961 181.56794434 -29.49951172 180.88354492 C-30.08756592 179.88931519 -30.08756592 179.88931519 -30.6875 178.875 C-31.85691882 176.89912765 -33.02669267 174.92350624 -34.20037842 172.95016479 C-35.00218626 171.59170471 -35.79438738 170.22753389 -36.57745361 168.85818481 C-38.75031135 165.09510384 -41.03397116 161.59639335 -43.69433594 158.15771484 C-54.7401696 143.21481018 -53.89904054 128.20321366 -53.26147461 110.46911621 C-53.13670625 106.62085643 -53.08349426 102.77159197 -53.0234375 98.921875 C-52.89633394 91.4244197 -52.69273127 83.93180773 -52.4375 76.4375 C-53.21652679 76.13261154 -53.99555359 75.82772308 -54.79818726 75.51359558 C-57.34274512 74.47613328 -59.56437826 73.28161661 -61.9140625 71.86328125 C-62.74478271 71.3633667 -63.57550293 70.86345215 -64.43139648 70.34838867 C-65.73379272 69.55718628 -65.73379272 69.55718628 -67.0625 68.75 C-67.95461182 68.21415283 -68.84672363 67.67830566 -69.76586914 67.1262207 C-75.38568551 63.73674179 -80.88541253 60.23790449 -86.24609375 56.44921875 C-89.12004454 55.12238585 -90.44890868 55.49981215 -93.4375 56.4375 C-94.23542969 56.78039062 -95.03335938 57.12328125 -95.85546875 57.4765625 C-101.96737286 59.75118945 -109.90854223 59.55875417 -115.875 56.875 C-121.49690491 53.52325119 -125.43834243 48.65306263 -127.4375 42.4375 C-128.27474732 34.83412613 -128.28334412 27.6577502 -123.4375 21.4375 C-119.07749624 16.81920218 -114.83640868 13.81177163 -108.38671875 13.1015625 C-100.40733657 13.00600104 -94.62970624 13.4797572 -88.69140625 19.0859375 C-84.21829989 23.99884568 -82.28275103 28.11125788 -82.453125 34.83203125 C-82.17999339 38.31329208 -81.97128022 39.88979391 -79.50976562 42.41552734 C-76.8090615 44.18936568 -74.07572109 45.67665384 -71.1875 47.125 C-69.17922513 48.2152946 -67.17141113 49.30643854 -65.1640625 50.3984375 C-64.18469727 50.91374023 -63.20533203 51.42904297 -62.19628906 51.95996094 C-58.55500718 53.91014128 -55.05364432 56.04546712 -51.5625 58.25 C-50.55445313 58.87519531 -49.54640625 59.50039063 -48.5078125 60.14453125 C-47.82460938 60.57121094 -47.14140625 60.99789062 -46.4375 61.4375 C-46.20675781 60.74269531 -45.97601562 60.04789063 -45.73828125 59.33203125 C-44.17161833 55.8458534 -42.00101135 53.0795601 -39.625 50.125 C-38.72869388 48.97012531 -37.83415075 47.81388011 -36.94140625 46.65625 C-35.49067177 44.78222574 -34.02487506 42.93121174 -32.52734375 41.09375 C-31.11244237 39.19212255 -30.06617713 37.7244987 -29.4375 35.4375 C-30.1379529 33.32240692 -31.18069346 31.66036005 -32.35546875 29.76953125 C-34.85047379 24.39220991 -34.32196892 17.65612949 -32.77734375 12.03515625 C-30.21547389 6.25708612 -25.75012135 2.06046214 -20.109375 -0.703125 C-13.83173484 -2.72224903 -6.06554123 -2.7283226 0 0 Z M-18.4375 13.4375 C-20.77181177 17.18654617 -21.62552728 19.23882607 -20.9375 23.625 C-18.88176306 27.47950677 -16.43813298 29.43718351 -12.5625 31.375 C-8.88072383 31.48328753 -6.58528377 30.26893783 -3.4375 28.4375 C-1.09170649 24.67001346 -0.22372387 22.64889805 -1 18.25 C-2.95560431 14.42381766 -4.71682244 12.13507198 -8.75 10.5 C-12.71760764 10.40773005 -15.03423327 11.42074934 -18.4375 13.4375 Z M-112.4375 28.4375 C-114.78329351 32.20498654 -115.65127613 34.22610195 -114.875 38.625 C-112.91939569 42.45118234 -111.15817756 44.73992802 -107.125 46.375 C-103.15739236 46.46726995 -100.84076673 45.45425066 -97.4375 43.4375 C-95.09170649 39.67001346 -94.22372387 37.64889805 -95 33.25 C-96.95560431 29.42381766 -98.71682244 27.13507198 -102.75 25.5 C-106.71760764 25.40773005 -109.03423327 26.42074934 -112.4375 28.4375 Z M30.5625 192.4375 C28.21670649 196.20498654 27.34872387 198.22610195 28.125 202.625 C30.08060431 206.45118234 31.84182244 208.73992802 35.875 210.375 C39.84260764 210.46726995 42.15923327 209.45425066 45.5625 207.4375 C47.90829351 203.67001346 48.77627613 201.64889805 48 197.25 C46.04439569 193.42381766 44.28317756 191.13507198 40.25 189.5 C36.28239236 189.40773005 33.96576673 190.42074934 30.5625 192.4375 Z " fill="#985815" transform="translate(570.4375,735.5625)"/>
<path d="M0 0 C4.93118269 3.48790971 8.5680539 7.03910339 10.5625 12.8125 C11.21618007 19.32243717 11.46933101 25.28904926 7.5625 30.8125 C5.02024003 33.60898597 2.70775008 35.71566661 -0.4375 37.8125 C-1.4275 37.8125 -2.4175 37.8125 -3.4375 37.8125 C-3.28563232 38.47032471 -3.13376465 39.12814941 -2.97729492 39.8059082 C-1.42951596 47.574529 -0.5440403 55.27873425 -3.4375 62.8125 C-10.05763518 70.38084203 -19.62702688 74.83714136 -28.36425781 79.54541016 C-34.29916603 82.78441681 -39.86699031 86.57551049 -45.47125244 90.34790039 C-48.19111909 92.17371933 -50.92993447 93.96919403 -53.671875 95.76171875 C-55.02104004 96.64863403 -55.02104004 96.64863403 -56.39746094 97.5534668 C-58.4375 98.8125 -58.4375 98.8125 -59.4375 98.8125 C-59.4375 86.6025 -59.4375 74.3925 -59.4375 61.8125 C-61.0875 61.4825 -62.7375 61.1525 -64.4375 60.8125 C-69.17539706 56.6386383 -73.15236662 52.61245057 -73.640625 46.10546875 C-73.75535235 38.50478151 -73.20408906 34.02772512 -68.125 28.125 C-62.33689161 23.14453464 -57.77681652 22.31413253 -50.27734375 22.52734375 C-44.07287047 23.15035138 -40.40893737 26.19704576 -36.4375 30.8125 C-32.53066899 36.33595074 -32.78381993 42.30256283 -33.4375 48.8125 C-35.47014673 54.69647739 -39.31606691 58.39821127 -44.4375 61.8125 C-45.4275 61.8125 -46.4175 61.8125 -47.4375 61.8125 C-47.4375 66.1025 -47.4375 70.3925 -47.4375 74.8125 C-45.84035156 73.77802734 -45.84035156 73.77802734 -44.2109375 72.72265625 C-43.16679688 72.04855713 -43.16679688 72.04855713 -42.1015625 71.36083984 C-40.56287061 70.36206864 -39.0290606 69.35573981 -37.5 68.34228516 C-33.81910507 65.91714404 -30.18538322 63.62121031 -26.2265625 61.67578125 C-19.68157932 58.5534086 -19.68157932 58.5534086 -15.75097656 52.76611328 C-14.8781182 47.7541136 -15.03141543 42.86535235 -15.4375 37.8125 C-16.20835937 37.69519531 -16.97921875 37.57789063 -17.7734375 37.45703125 C-22.66534375 36.27350554 -25.72760922 31.87733617 -28.4375 27.8125 C-30.39756086 21.93231742 -30.26565527 15.20979157 -28.25 9.375 C-21.21697686 -0.56823961 -11.70395495 -4.04318444 0 0 Z M-17.4375 13.8125 C-18.86412219 16.66574437 -18.74783868 18.64704549 -18.4375 21.8125 C-16.63756226 24.51240662 -15.353727 26.3543865 -12.4375 27.8125 C-8.56535818 28.24273798 -6.91253629 28.12919086 -3.625 25.9375 C-1.04483184 23.43105093 -0.52032036 22.55788327 -0.125 19 C-0.50914358 15.0817355 -1.73006317 13.59956733 -4.4375 10.8125 C-9.7356842 8.1634079 -13.4459938 9.93503683 -17.4375 13.8125 Z M-61.4375 37.8125 C-62.86412219 40.66574437 -62.74783868 42.64704549 -62.4375 45.8125 C-60.63756226 48.51240662 -59.353727 50.3543865 -56.4375 51.8125 C-52.56535818 52.24273798 -50.91253629 52.12919086 -47.625 49.9375 C-45.04483184 47.43105093 -44.52032036 46.55788327 -44.125 43 C-44.50914358 39.0817355 -45.73006317 37.59956733 -48.4375 34.8125 C-53.7356842 32.1634079 -57.4459938 33.93503683 -61.4375 37.8125 Z " fill="#7DC017" transform="translate(649.4375,643.1875)"/>
<path d="M0 0 C4.93118269 3.48790971 8.5680539 7.03910339 10.5625 12.8125 C11.21618007 19.32243717 11.46933101 25.28904926 7.5625 30.8125 C3.60198788 35.41525733 -0.06897593 38.51595868 -6.27734375 39.0625 C-14.57497545 39.22660644 -14.57497545 39.22660644 -18.28515625 37.4453125 C-21.9880613 36.7019784 -22.45263566 37.08177238 -25.49609375 39.06640625 C-26.97119337 40.14850003 -28.430516 41.2523639 -29.875 42.375 C-30.96264648 43.18420898 -30.96264648 43.18420898 -32.07226562 44.00976562 C-33.51284161 45.08275528 -34.94445366 46.16789376 -36.36645508 47.26538086 C-38.4375 48.8125 -38.4375 48.8125 -40.4987793 50.12719727 C-43.55424725 52.08043777 -45.23872969 53.17488616 -46.33984375 56.70703125 C-46.35144531 57.66996094 -46.36304688 58.63289062 -46.375 59.625 C-46.41947266 61.08873047 -46.41947266 61.08873047 -46.46484375 62.58203125 C-46.45582031 63.31808594 -46.44679688 64.05414062 -46.4375 64.8125 C-45.66664063 64.92980469 -44.89578125 65.04710937 -44.1015625 65.16796875 C-39.20965625 66.35149446 -36.14739078 70.74766383 -33.4375 74.8125 C-31.47743914 80.69268258 -31.60934473 87.41520843 -33.625 93.25 C-37.11290971 98.18118269 -40.66410339 101.8180539 -46.4375 103.8125 C-52.94743717 104.46618007 -58.91404926 104.71933101 -64.4375 100.8125 C-69.05295424 96.84106263 -72.09964862 93.17712953 -72.72265625 86.97265625 C-72.93782291 79.40440273 -72.14011689 74.78537858 -66.9375 69.0625 C-62.21527778 64.8125 -62.21527778 64.8125 -58.4375 64.8125 C-58.73333984 62.96398437 -58.73333984 62.96398437 -59.03515625 61.078125 C-60.44208085 48.43882605 -60.44208085 48.43882605 -56.96240234 43.87988281 C-52.32623116 39.74365561 -46.84100741 36.8203463 -41.4375 33.8125 C-37.07341865 31.22693494 -32.80049603 28.65319432 -29.4375 24.8125 C-28.75545352 21.52588854 -28.84881352 18.87664567 -29.1953125 15.546875 C-29.52557906 11.81805905 -28.57644483 9.83652545 -26.4375 6.8125 C-19.3390175 -1.43708777 -10.31199743 -3.56232638 0 0 Z M-17.4375 13.8125 C-18.86412219 16.66574437 -18.74783868 18.64704549 -18.4375 21.8125 C-16.63756226 24.51240662 -15.353727 26.3543865 -12.4375 27.8125 C-8.56535818 28.24273798 -6.91253629 28.12919086 -3.625 25.9375 C-1.04483184 23.43105093 -0.52032036 22.55788327 -0.125 19 C-0.50914358 15.0817355 -1.73006317 13.59956733 -4.4375 10.8125 C-9.7356842 8.1634079 -13.4459938 9.93503683 -17.4375 13.8125 Z M-60.4375 78.8125 C-61.86412219 81.66574437 -61.74783868 83.64704549 -61.4375 86.8125 C-59.63756226 89.51240662 -58.353727 91.3543865 -55.4375 92.8125 C-51.56535818 93.24273798 -49.91253629 93.12919086 -46.625 90.9375 C-44.04483184 88.43105093 -43.52032036 87.55788327 -43.125 84 C-43.50914358 80.0817355 -44.73006317 78.59956733 -47.4375 75.8125 C-52.7356842 73.1634079 -56.4459938 74.93503683 -60.4375 78.8125 Z " fill="#7DC017" transform="translate(741.4375,600.1875)"/>
<path d="M0 0 C0.39507893 4.34586828 0.45331002 6.32003497 -2 10 C-5.0546875 10.6953125 -5.0546875 10.6953125 -8.875 11.125 C-9.54974365 11.20282715 -10.2244873 11.2806543 -10.91967773 11.36083984 C-12.94517063 11.58889605 -14.97190819 11.79652954 -17 12 C-18.04542969 12.1134375 -19.09085937 12.226875 -20.16796875 12.34375 C-40.95472615 14.3635159 -40.95472615 14.3635159 -46 11 C-46.39507893 6.65413172 -46.45331002 4.67996503 -44 1 C-40.9453125 0.3046875 -40.9453125 0.3046875 -37.125 -0.125 C-36.45025635 -0.20282715 -35.7755127 -0.2806543 -35.08032227 -0.36083984 C-33.05482937 -0.58889605 -31.02809181 -0.79652954 -29 -1 C-27.95457031 -1.1134375 -26.90914063 -1.226875 -25.83203125 -1.34375 C-5.04527385 -3.3635159 -5.04527385 -3.3635159 0 0 Z " fill="#FDDC1C" transform="translate(288,395)"/>
<path d="M0 0 C3.5 0.375 3.5 0.375 6.5 2.375 C7.2609137 8.11643971 5.89036785 11.13738178 2.66796875 15.82421875 C2.07934807 16.69407158 2.07934807 16.69407158 1.47883606 17.58149719 C0.22994506 19.41921457 -1.04070384 21.24058143 -2.3125 23.0625 C-3.15576015 24.2965274 -3.99757185 25.5315459 -4.83789062 26.76757812 C-7.03482093 29.98702015 -9.25132278 33.19137111 -11.5 36.375 C-12.26509888 37.54059448 -12.26509888 37.54059448 -13.0456543 38.72973633 C-14.5 40.375 -14.5 40.375 -18 40.75 C-21.5 40.375 -21.5 40.375 -24.5 38.375 C-25.2609137 32.63356029 -23.89036785 29.61261822 -20.66796875 24.92578125 C-20.27555496 24.34587936 -19.88314117 23.76597748 -19.47883606 23.16850281 C-18.22994506 21.33078543 -16.95929616 19.50941857 -15.6875 17.6875 C-14.84423985 16.4534726 -14.00242815 15.2184541 -13.16210938 13.98242188 C-10.96517907 10.76297985 -8.74867722 7.55862889 -6.5 4.375 C-5.98993408 3.59793701 -5.47986816 2.82087402 -4.9543457 2.02026367 C-3.5 0.375 -3.5 0.375 0 0 Z " fill="#FDDC1C" transform="translate(752.5,162.625)"/>
<path d="M0 0 C5.75298457 -0.52435957 9.98714254 0.3556263 15.45703125 2.3359375 C16.46149544 2.69505722 16.46149544 2.69505722 17.48625183 3.06143188 C18.88742657 3.56498114 20.28645973 4.07452717 21.68334961 4.58984375 C23.82014844 5.37782048 25.96289179 6.14740707 28.10742188 6.9140625 C38.50427043 10.66951362 38.50427043 10.66951362 42 13 C42.39507893 17.34586828 42.45331002 19.32003497 40 23 C34.24701543 23.52435957 30.01285746 22.6443737 24.54296875 20.6640625 C23.87332596 20.42464935 23.20368317 20.18523621 22.51374817 19.93856812 C21.11257343 19.43501886 19.71354027 18.92547283 18.31665039 18.41015625 C16.17985156 17.62217952 14.03710821 16.85259293 11.89257812 16.0859375 C1.49572957 12.33048638 1.49572957 12.33048638 -2 10 C-2.39507893 5.65413172 -2.45331002 3.67996503 0 0 Z " fill="#FDDC1C" transform="translate(263,242)"/>
<path d="M0 0 C8.28987693 -1.52905506 17.77428259 0.38940892 26.0625 1.3125 C27.16924072 1.42996582 28.27598145 1.54743164 29.41625977 1.66845703 C30.46612061 1.79462402 31.51598145 1.92079102 32.59765625 2.05078125 C34.01316772 2.21574097 34.01316772 2.21574097 35.45727539 2.3840332 C38.33895366 3.08211043 39.88827159 3.92610635 42 6 C42.72608529 11.80868229 42.72608529 11.80868229 40.9453125 14.73046875 C37.91114725 16.71059667 34.89830794 16.12828849 31.4375 15.8125 C30.69459717 15.75497559 29.95169434 15.69745117 29.1862793 15.63818359 C26.78885875 15.4441437 24.39486432 15.22323386 22 15 C21.18756836 14.93119629 20.37513672 14.86239258 19.53808594 14.79150391 C17.12772854 14.58560121 14.72023002 14.35950456 12.3125 14.125 C11.5712085 14.05901611 10.82991699 13.99303223 10.06616211 13.92504883 C5.46992322 13.43171464 2.00077296 12.30595733 -2 10 C-2.25 3.375 -2.25 3.375 0 0 Z " fill="#FDDC1C" transform="translate(789,445)"/>
<path d="M0 0 C2 2 2 2 2.3125 5.4375 C2 9 2 9 0.87988281 10.56762695 C-1.70463096 12.53689218 -4.32441747 13.40969226 -7.390625 14.48046875 C-8.01346375 14.69818436 -8.63630249 14.91589996 -9.27801514 15.14021301 C-10.59447144 15.59745822 -11.9124922 16.05022073 -13.23193359 16.4987793 C-15.23415285 17.18209172 -17.22831583 17.88586837 -19.22265625 18.59179688 C-20.50737747 19.03511687 -21.79252154 19.47721374 -23.078125 19.91796875 C-24.23731445 20.31781982 -25.39650391 20.7176709 -26.59082031 21.12963867 C-30.243097 22.0620625 -33.24618848 22.2942344 -37 22 C-37.99 21.34 -38.98 20.68 -40 20 C-40.39507893 15.65413172 -40.45331002 13.67996503 -38 10 C-35.75347727 8.96368468 -33.59315254 8.08692665 -31.26953125 7.265625 C-30.60088547 7.02334167 -29.93223969 6.78105835 -29.24333191 6.53143311 C-27.82708351 6.02210764 -26.40891155 5.51810405 -24.98901367 5.01904297 C-22.83114805 4.25658905 -20.68441014 3.46742423 -18.53710938 2.67578125 C-17.15684313 2.18323054 -15.77599997 1.69229295 -14.39453125 1.203125 C-13.7588472 0.96676331 -13.12316315 0.73040161 -12.46821594 0.48687744 C-7.97018127 -1.05694252 -4.61128723 -1.11197694 0 0 Z " fill="#FDDC1C" transform="translate(834,294)"/>
<path d="M0 0 C4.34586828 -0.39507893 6.32003497 -0.45331002 10 2 C10.89135742 4.67041016 10.89135742 4.67041016 11.60546875 8.0390625 C11.86650391 9.25980469 12.12753906 10.48054687 12.39648438 11.73828125 C12.65751953 13.02089844 12.91855469 14.30351562 13.1875 15.625 C13.46013672 16.88441406 13.73277344 18.14382812 14.01367188 19.44140625 C16.57726671 31.68755101 16.57726671 31.68755101 16 38 C15.34 38.99 14.68 39.98 14 41 C9.65413172 41.39507893 7.67996503 41.45331002 4 39 C3.10864258 36.32958984 3.10864258 36.32958984 2.39453125 32.9609375 C2.13349609 31.74019531 1.87246094 30.51945312 1.60351562 29.26171875 C1.34248047 27.97910156 1.08144531 26.69648438 0.8125 25.375 C0.53986328 24.11558594 0.26722656 22.85617188 -0.01367188 21.55859375 C-2.57726671 9.31244899 -2.57726671 9.31244899 -2 3 C-1.34 2.01 -0.68 1.02 0 0 Z " fill="#FDDC1C" transform="translate(421,118)"/>
<path d="M0 0 C6.625 -0.25 6.625 -0.25 10 2 C11.06446385 9.15365491 9.94611969 16.76772358 9.1875 23.9375 C9.11764893 24.64656494 9.04779785 25.35562988 8.97583008 26.08618164 C8.43921656 30.60494802 7.25280865 34.05604185 5 38 C-1.625 38.25 -1.625 38.25 -5 36 C-6.06446385 28.84634509 -4.94611969 21.23227642 -4.1875 14.0625 C-4.11764893 13.35343506 -4.04779785 12.64437012 -3.97583008 11.91381836 C-3.43921656 7.39505198 -2.25280865 3.94395815 0 0 Z " fill="#FDDC1C" transform="translate(593,116)"/>
</svg>
