<?xml version="1.0" encoding="UTF-8"?>
<svg xmlns="http://www.w3.org/2000/svg" xmlns:xlink="http://www.w3.org/1999/xlink" width="45px" height="55px" viewBox="0 0 45 55" version="1.1">
<g id="surface1">
<path style="fill:none;stroke-width:15;stroke-linecap:butt;stroke-linejoin:miter;stroke:rgb(76.078431%,39.215686%,0%);stroke-opacity:1;stroke-miterlimit:4;" d="M 353.497917 668.026989 L 323.470833 709.5 L 323.470833 776.015625 L 360.022917 837.522727 L 391.5 837.522727 " transform="matrix(0.0646552,0,0,0.0639535,0,0)"/>
<path style="fill:none;stroke-width:15;stroke-linecap:butt;stroke-linejoin:miter;stroke:rgb(76.078431%,39.215686%,0%);stroke-opacity:1;stroke-miterlimit:4;" d="M 275.983333 680.975852 L 324.014583 709.988636 " transform="matrix(0.0646552,0,0,0.0639535,0,0)"/>
<path style="fill:none;stroke-width:12;stroke-linecap:butt;stroke-linejoin:miter;stroke:rgb(76.078431%,39.215686%,0%);stroke-opacity:1;stroke-miterlimit:4;" d="M 279.970833 673.524148 C 279.970833 682.625 272.6 690.015625 263.477083 690.015625 C 254.414583 690.015625 246.983333 682.625 246.983333 673.524148 C 246.983333 664.362216 254.414583 656.971591 263.477083 656.971591 C 272.6 656.971591 279.970833 664.362216 279.970833 673.524148 Z M 279.970833 673.524148 " transform="matrix(0.0646552,0,0,0.0639535,0,0)"/>
<path style="fill:none;stroke-width:12;stroke-linecap:butt;stroke-linejoin:miter;stroke:rgb(76.078431%,39.215686%,0%);stroke-opacity:1;stroke-miterlimit:4;" d="M 373.979167 658.49858 C 373.979167 667.599432 366.608333 674.990057 357.485417 674.990057 C 348.3625 674.990057 340.991667 667.599432 340.991667 658.49858 C 340.991667 649.397727 348.3625 642.007102 357.485417 642.007102 C 366.608333 642.007102 373.979167 649.397727 373.979167 658.49858 Z M 373.979167 658.49858 " transform="matrix(0.0646552,0,0,0.0639535,0,0)"/>
<path style="fill:none;stroke-width:12;stroke-linecap:butt;stroke-linejoin:miter;stroke:rgb(76.078431%,39.215686%,0%);stroke-opacity:1;stroke-miterlimit:4;" d="M 422.977083 837.522727 C 422.977083 846.62358 415.60625 854.014205 406.483333 854.014205 C 397.360417 854.014205 389.989583 846.62358 389.989583 837.522727 C 389.989583 828.360795 397.360417 820.97017 406.483333 820.97017 C 415.60625 820.97017 422.977083 828.360795 422.977083 837.522727 Z M 422.977083 837.522727 " transform="matrix(0.0646552,0,0,0.0639535,0,0)"/>
<path style="fill:none;stroke-width:10.5;stroke-linecap:butt;stroke-linejoin:miter;stroke:rgb(51.764706%,83.529412%,4.313725%);stroke-opacity:1;stroke-miterlimit:4;" d="M 224.75 715.974432 C 224.75 724.159091 218.164583 730.755682 210.008333 730.755682 C 201.852083 730.755682 195.266667 724.159091 195.266667 715.974432 C 195.266667 707.850852 201.852083 701.254261 210.008333 701.254261 C 218.164583 701.254261 224.75 707.850852 224.75 715.974432 Z M 224.75 715.974432 " transform="matrix(0.0646552,0,0,0.0639535,0,0)"/>
<path style="fill:none;stroke-width:10.5;stroke-linecap:butt;stroke-linejoin:miter;stroke:rgb(51.764706%,83.529412%,4.313725%);stroke-opacity:1;stroke-miterlimit:4;" d="M 54.7375 486.009943 C 54.7375 494.133523 48.152083 500.730114 39.995833 500.730114 C 31.839583 500.730114 25.254167 494.133523 25.254167 486.009943 C 25.254167 477.825284 31.839583 471.228693 39.995833 471.228693 C 48.152083 471.228693 54.7375 477.825284 54.7375 486.009943 Z M 54.7375 486.009943 " transform="matrix(0.0646552,0,0,0.0639535,0,0)"/>
<path style="fill:none;stroke-width:10.5;stroke-linecap:butt;stroke-linejoin:miter;stroke:rgb(51.764706%,83.529412%,4.313725%);stroke-opacity:1;stroke-miterlimit:4;" d="M 34.739583 413.997159 C 34.739583 422.120739 28.154167 428.778409 19.997917 428.778409 C 11.841667 428.778409 5.25625 422.120739 5.25625 413.997159 C 5.25625 405.87358 11.841667 399.276989 19.997917 399.276989 C 28.154167 399.276989 34.739583 405.87358 34.739583 413.997159 Z M 34.739583 413.997159 " transform="matrix(0.0646552,0,0,0.0639535,0,0)"/>
<path style="fill:none;stroke-width:10.5;stroke-linecap:butt;stroke-linejoin:miter;stroke:rgb(51.764706%,83.529412%,4.313725%);stroke-opacity:1;stroke-miterlimit:4;" d="M 74.735417 548.982955 C 74.735417 557.167614 68.15 563.764205 59.99375 563.764205 C 51.8375 563.764205 45.252083 557.167614 45.252083 548.982955 C 45.252083 540.859375 51.8375 534.262784 59.99375 534.262784 C 68.15 534.262784 74.735417 540.859375 74.735417 548.982955 Z M 74.735417 548.982955 " transform="matrix(0.0646552,0,0,0.0639535,0,0)"/>
<path style="fill:none;stroke-width:10.5;stroke-linecap:butt;stroke-linejoin:miter;stroke:rgb(51.764706%,83.529412%,4.313725%);stroke-opacity:1;stroke-miterlimit:4;" d="M 89.779167 626.981534 C 89.779167 635.166193 83.133333 641.762784 74.977083 641.762784 C 66.88125 641.762784 60.235417 635.166193 60.235417 626.981534 C 60.235417 618.857955 66.88125 612.261364 74.977083 612.261364 C 83.133333 612.261364 89.779167 618.857955 89.779167 626.981534 Z M 89.779167 626.981534 " transform="matrix(0.0646552,0,0,0.0639535,0,0)"/>
<path style="fill:none;stroke-width:12;stroke-linecap:butt;stroke-linejoin:miter;stroke:rgb(51.764706%,83.529412%,4.313725%);stroke-opacity:1;stroke-miterlimit:4;" d="M 209.525 704.002841 L 209.525 661.980114 L 136.48125 601.511364 C 136.48125 601.511364 136.48125 588.5625 136.48125 577.995739 L 51.475 494.5 " transform="matrix(0.0646552,0,0,0.0639535,0,0)"/>
<path style="fill:none;stroke-width:12;stroke-linecap:butt;stroke-linejoin:miter;stroke:rgb(51.764706%,83.529412%,4.313725%);stroke-opacity:1;stroke-miterlimit:4;" d="M 137.025 577.995739 L 91.410417 577.995739 L 70.989583 559 " transform="matrix(0.0646552,0,0,0.0639535,0,0)"/>
<path style="fill:none;stroke-width:12;stroke-linecap:butt;stroke-linejoin:miter;stroke:rgb(51.764706%,83.529412%,4.313725%);stroke-opacity:1;stroke-miterlimit:4;" d="M 193.997917 710.477273 L 142.522917 671.508523 L 142.522917 647.015625 L 118.477083 626.981534 L 88.99375 626.981534 " transform="matrix(0.0646552,0,0,0.0639535,0,0)"/>
<path style="fill:none;stroke-width:12;stroke-linecap:butt;stroke-linejoin:miter;stroke:rgb(51.764706%,83.529412%,4.313725%);stroke-opacity:1;stroke-miterlimit:4;" d="M 85.972917 526.017045 L 85.972917 483.994318 L 29.483333 424.991477 " transform="matrix(0.0646552,0,0,0.0639535,0,0)"/>
<path style="fill:none;stroke-width:10.5;stroke-linecap:butt;stroke-linejoin:miter;stroke:rgb(51.764706%,83.529412%,4.313725%);stroke-opacity:1;stroke-miterlimit:4;" d="M 105.729167 432.015625 C 105.729167 440.139205 99.14375 446.735795 90.9875 446.735795 C 82.83125 446.735795 76.245833 440.139205 76.245833 432.015625 C 76.245833 423.830966 82.83125 417.234375 90.9875 417.234375 C 99.14375 417.234375 105.729167 423.830966 105.729167 432.015625 Z M 105.729167 432.015625 " transform="matrix(0.0646552,0,0,0.0639535,0,0)"/>
<path style="fill:none;stroke-width:10.5;stroke-linecap:butt;stroke-linejoin:miter;stroke:rgb(51.764706%,83.529412%,4.313725%);stroke-opacity:1;stroke-miterlimit:4;" d="M 267.766667 529.009943 C 267.766667 537.133523 261.120833 543.730114 253.025 543.730114 C 244.86875 543.730114 238.222917 537.133523 238.222917 529.009943 C 238.222917 520.825284 244.86875 514.228693 253.025 514.228693 C 261.120833 514.228693 267.766667 520.825284 267.766667 529.009943 Z M 267.766667 529.009943 " transform="matrix(0.0646552,0,0,0.0639535,0,0)"/>
<path style="fill:none;stroke-width:10.5;stroke-linecap:butt;stroke-linejoin:miter;stroke:rgb(51.764706%,83.529412%,4.313725%);stroke-opacity:1;stroke-miterlimit:4;" d="M 187.775 486.009943 C 187.775 494.133523 181.129167 500.730114 172.972917 500.730114 C 164.877083 500.730114 158.23125 494.133523 158.23125 486.009943 C 158.23125 477.825284 164.877083 471.228693 172.972917 471.228693 C 181.129167 471.228693 187.775 477.825284 187.775 486.009943 Z M 187.775 486.009943 " transform="matrix(0.0646552,0,0,0.0639535,0,0)"/>
<path style="fill:none;stroke-width:10.5;stroke-linecap:butt;stroke-linejoin:miter;stroke:rgb(51.764706%,83.529412%,4.313725%);stroke-opacity:1;stroke-miterlimit:4;" d="M 311.75 633.028409 C 311.75 641.151989 305.164583 647.74858 297.008333 647.74858 C 288.852083 647.74858 282.266667 641.151989 282.266667 633.028409 C 282.266667 624.84375 288.852083 618.247159 297.008333 618.247159 C 305.164583 618.247159 311.75 624.84375 311.75 633.028409 Z M 311.75 633.028409 " transform="matrix(0.0646552,0,0,0.0639535,0,0)"/>
<path style="fill:none;stroke-width:12;stroke-linecap:butt;stroke-linejoin:miter;stroke:rgb(51.764706%,83.529412%,4.313725%);stroke-opacity:1;stroke-miterlimit:4;" d="M 292.477083 621.973011 L 259.972917 593.99858 L 204.510417 593.99858 L 116.483333 511.480114 L 116.483333 469.518466 L 97.029167 443.987216 " transform="matrix(0.0646552,0,0,0.0639535,0,0)"/>
<path style="fill:none;stroke-width:12;stroke-linecap:butt;stroke-linejoin:miter;stroke:rgb(51.764706%,83.529412%,4.313725%);stroke-opacity:1;stroke-miterlimit:4;" d="M 204.510417 593.99858 L 204.510417 556.007102 L 172.972917 524.978693 L 172.972917 500.974432 " transform="matrix(0.0646552,0,0,0.0639535,0,0)"/>
<path style="fill:none;stroke-width:12;stroke-linecap:butt;stroke-linejoin:miter;stroke:rgb(51.764706%,83.529412%,4.313725%);stroke-opacity:1;stroke-miterlimit:4;" d="M 292.477083 621.973011 L 292.477083 572.49858 L 262.027083 542.019886 " transform="matrix(0.0646552,0,0,0.0639535,0,0)"/>
<path style="fill:none;stroke-width:10.5;stroke-linecap:butt;stroke-linejoin:miter;stroke:rgb(51.764706%,83.529412%,4.313725%);stroke-opacity:1;stroke-miterlimit:4;" d="M 426.722917 674.012784 C 426.722917 682.136364 420.1375 688.732955 411.98125 688.732955 C 403.825 688.732955 397.239583 682.136364 397.239583 674.012784 C 397.239583 665.828125 403.825 659.231534 411.98125 659.231534 C 420.1375 659.231534 426.722917 665.828125 426.722917 674.012784 Z M 426.722917 674.012784 " transform="matrix(0.0646552,0,0,0.0639535,0,0)"/>
<path style="fill:none;stroke-width:10.5;stroke-linecap:butt;stroke-linejoin:miter;stroke:rgb(51.764706%,83.529412%,4.313725%);stroke-opacity:1;stroke-miterlimit:4;" d="M 690.74375 500.974432 C 690.74375 509.159091 684.158333 515.755682 676.002083 515.755682 C 667.845833 515.755682 661.260417 509.159091 661.260417 500.974432 C 661.260417 492.850852 667.845833 486.254261 676.002083 486.254261 C 684.158333 486.254261 690.74375 492.850852 690.74375 500.974432 Z M 690.74375 500.974432 " transform="matrix(0.0646552,0,0,0.0639535,0,0)"/>
<path style="fill:none;stroke-width:10.5;stroke-linecap:butt;stroke-linejoin:miter;stroke:rgb(51.764706%,83.529412%,4.313725%);stroke-opacity:1;stroke-miterlimit:4;" d="M 623.741667 496.026989 C 623.741667 504.150568 617.15625 510.747159 609 510.747159 C 600.84375 510.747159 594.258333 504.150568 594.258333 496.026989 C 594.258333 487.84233 600.84375 481.245739 609 481.245739 C 617.15625 481.245739 623.741667 487.84233 623.741667 496.026989 Z M 623.741667 496.026989 " transform="matrix(0.0646552,0,0,0.0639535,0,0)"/>
<path style="fill:none;stroke-width:10.5;stroke-linecap:butt;stroke-linejoin:miter;stroke:rgb(51.764706%,83.529412%,4.313725%);stroke-opacity:1;stroke-miterlimit:4;" d="M 670.745833 569.017045 C 670.745833 577.140625 664.160417 583.737216 656.004167 583.737216 C 647.847917 583.737216 641.2625 577.140625 641.2625 569.017045 C 641.2625 560.832386 647.847917 554.235795 656.004167 554.235795 C 664.160417 554.235795 670.745833 560.832386 670.745833 569.017045 Z M 670.745833 569.017045 " transform="matrix(0.0646552,0,0,0.0639535,0,0)"/>
<path style="fill:none;stroke-width:10.5;stroke-linecap:butt;stroke-linejoin:miter;stroke:rgb(51.764706%,83.529412%,4.313725%);stroke-opacity:1;stroke-miterlimit:4;" d="M 599.75625 618.980114 C 599.75625 627.164773 593.170833 633.761364 585.014583 633.761364 C 576.858333 633.761364 570.272917 627.164773 570.272917 618.980114 C 570.272917 610.856534 576.858333 604.259943 585.014583 604.259943 C 593.170833 604.259943 599.75625 610.856534 599.75625 618.980114 Z M 599.75625 618.980114 " transform="matrix(0.0646552,0,0,0.0639535,0,0)"/>
<path style="fill:none;stroke-width:12;stroke-linecap:butt;stroke-linejoin:miter;stroke:rgb(51.764706%,83.529412%,4.313725%);stroke-opacity:1;stroke-miterlimit:4;" d="M 427.025 671.508523 L 464.483333 643.473011 L 502.002083 643.473011 L 531.002083 623.5 L 531.002083 591.005682 L 576.495833 556.495739 L 601.991667 556.495739 L 669.477083 507.99858 " transform="matrix(0.0646552,0,0,0.0639535,0,0)"/>
<path style="fill:none;stroke-width:12;stroke-linecap:butt;stroke-linejoin:miter;stroke:rgb(51.764706%,83.529412%,4.313725%);stroke-opacity:1;stroke-miterlimit:4;" d="M 421.527083 682.991477 L 441.525 701.987216 L 494.99375 701.987216 L 558.975 662.52983 L 558.975 640.480114 L 576.979167 626.981534 " transform="matrix(0.0646552,0,0,0.0639535,0,0)"/>
<path style="fill:none;stroke-width:12;stroke-linecap:butt;stroke-linejoin:miter;stroke:rgb(51.764706%,83.529412%,4.313725%);stroke-opacity:1;stroke-miterlimit:4;" d="M 601.025 555.02983 L 614.014583 570.482955 L 641.504167 570.482955 " transform="matrix(0.0646552,0,0,0.0639535,0,0)"/>
<path style="fill:none;stroke-width:12;stroke-linecap:butt;stroke-linejoin:miter;stroke:rgb(51.764706%,83.529412%,4.313725%);stroke-opacity:1;stroke-miterlimit:4;" d="M 576.0125 558.022727 L 576.0125 524.490057 L 601.025 504.028409 " transform="matrix(0.0646552,0,0,0.0639535,0,0)"/>
<path style="fill:none;stroke-width:10.5;stroke-linecap:butt;stroke-linejoin:miter;stroke:rgb(51.764706%,83.529412%,4.313725%);stroke-opacity:1;stroke-miterlimit:4;" d="M 544.777083 521.008523 C 544.777083 529.132102 538.13125 535.728693 529.975 535.728693 C 521.879167 535.728693 515.233333 529.132102 515.233333 521.008523 C 515.233333 512.823864 521.879167 506.227273 529.975 506.227273 C 538.13125 506.227273 544.777083 512.823864 544.777083 521.008523 Z M 544.777083 521.008523 " transform="matrix(0.0646552,0,0,0.0639535,0,0)"/>
<path style="fill:none;stroke-width:10.5;stroke-linecap:butt;stroke-linejoin:miter;stroke:rgb(51.764706%,83.529412%,4.313725%);stroke-opacity:1;stroke-miterlimit:4;" d="M 501.760417 585.997159 C 501.760417 594.120739 495.175 600.778409 487.01875 600.778409 C 478.8625 600.778409 472.277083 594.120739 472.277083 585.997159 C 472.277083 577.87358 478.8625 571.276989 487.01875 571.276989 C 495.175 571.276989 501.760417 577.87358 501.760417 585.997159 Z M 501.760417 585.997159 " transform="matrix(0.0646552,0,0,0.0639535,0,0)"/>
<path style="fill:none;stroke-width:12;stroke-linecap:butt;stroke-linejoin:miter;stroke:rgb(51.764706%,83.529412%,4.313725%);stroke-opacity:1;stroke-miterlimit:4;" d="M 487.01875 574.025568 L 487.01875 552.525568 L 518.979167 529.49858 " transform="matrix(0.0646552,0,0,0.0639535,0,0)"/>
<path style="fill:none;stroke-width:10.5;stroke-linecap:butt;stroke-linejoin:miter;stroke:rgb(51.764706%,83.529412%,4.313725%);stroke-opacity:1;stroke-miterlimit:4;" d="M 408.779167 588.012784 C 408.779167 596.136364 402.133333 602.732955 393.977083 602.732955 C 385.88125 602.732955 379.235417 596.136364 379.235417 588.012784 C 379.235417 579.828125 385.88125 573.231534 393.977083 573.231534 C 402.133333 573.231534 408.779167 579.828125 408.779167 588.012784 Z M 408.779167 588.012784 " transform="matrix(0.0646552,0,0,0.0639535,0,0)"/>
<path style="fill:none;stroke-width:10.5;stroke-linecap:butt;stroke-linejoin:miter;stroke:rgb(51.764706%,83.529412%,4.313725%);stroke-opacity:1;stroke-miterlimit:4;" d="M 452.7625 564.008523 C 452.7625 572.132102 446.116667 578.728693 438.020833 578.728693 C 429.864583 578.728693 423.279167 572.132102 423.279167 564.008523 C 423.279167 555.823864 429.864583 549.227273 438.020833 549.227273 C 446.116667 549.227273 452.7625 555.823864 452.7625 564.008523 Z M 452.7625 564.008523 " transform="matrix(0.0646552,0,0,0.0639535,0,0)"/>
<path style="fill:none;stroke-width:12;stroke-linecap:butt;stroke-linejoin:miter;stroke:rgb(51.764706%,83.529412%,4.313725%);stroke-opacity:1;stroke-miterlimit:4;" d="M 393.977083 605.97017 L 393.977083 632.478693 L 438.020833 603.526989 L 438.020833 578.973011 " transform="matrix(0.0646552,0,0,0.0639535,0,0)"/>
<path style="fill:none;stroke-width:16;stroke-linecap:round;stroke-linejoin:miter;stroke:rgb(99.215686%,86.27451%,10.980392%);stroke-opacity:1;stroke-miterlimit:4;" d="M 241.485417 487.475852 C 241.485417 487.475852 235.44375 469.884943 224.025 462.005682 C 162.520833 419.494318 107.3 359.697443 110.985417 271.987216 C 115.939583 155.875 187.472917 77.021307 333.5 77.021307 C 494.510417 77.021307 576.375 159.723011 567.49375 306.985795 C 561.029167 414.974432 474.029167 455.47017 452.520833 487.475852 C 445.33125 498.164773 439.470833 525.528409 439.470833 525.528409 " transform="matrix(0.0646552,0,0,0.0639535,0,0)"/>
<path style="fill:none;stroke-width:16;stroke-linecap:round;stroke-linejoin:miter;stroke:rgb(99.215686%,86.27451%,10.980392%);stroke-opacity:1;stroke-miterlimit:4;" d="M 32.9875 297.274148 L 67.847917 294.159091 " transform="matrix(0.0646552,0,0,0.0639535,0,0)"/>
<path style="fill:none;stroke-width:16;stroke-linecap:round;stroke-linejoin:miter;stroke:rgb(99.215686%,86.27451%,10.980392%);stroke-opacity:1;stroke-miterlimit:4;" d="M 52.441667 138.161932 L 85.247917 149.522727 " transform="matrix(0.0646552,0,0,0.0639535,0,0)"/>
<path style="fill:none;stroke-width:16;stroke-linecap:round;stroke-linejoin:miter;stroke:rgb(99.215686%,86.27451%,10.980392%);stroke-opacity:1;stroke-miterlimit:4;" d="M 214.2375 10.078125 L 220.4 40.007102 " transform="matrix(0.0646552,0,0,0.0639535,0,0)"/>
<path style="fill:none;stroke-width:16;stroke-linecap:round;stroke-linejoin:miter;stroke:rgb(99.215686%,86.27451%,10.980392%);stroke-opacity:1;stroke-miterlimit:4;" d="M 390.4125 8.00142 L 387.33125 34.87642 " transform="matrix(0.0646552,0,0,0.0639535,0,0)"/>
<path style="fill:none;stroke-width:16;stroke-linecap:round;stroke-linejoin:miter;stroke:rgb(99.215686%,86.27451%,10.980392%);stroke-opacity:1;stroke-miterlimit:4;" d="M 530.7 85.511364 L 550.154167 56.559659 " transform="matrix(0.0646552,0,0,0.0639535,0,0)"/>
<path style="fill:none;stroke-width:16;stroke-linecap:round;stroke-linejoin:miter;stroke:rgb(99.215686%,86.27451%,10.980392%);stroke-opacity:1;stroke-miterlimit:4;" d="M 598.30625 202.234375 L 628.997917 191.362216 " transform="matrix(0.0646552,0,0,0.0639535,0,0)"/>
<path style="fill:none;stroke-width:16;stroke-linecap:round;stroke-linejoin:miter;stroke:rgb(99.215686%,86.27451%,10.980392%);stroke-opacity:1;stroke-miterlimit:4;" d="M 591.116667 347.909091 L 623.8625 351.512784 " transform="matrix(0.0646552,0,0,0.0639535,0,0)"/>
<path style="fill:none;stroke-width:12;stroke-linecap:butt;stroke-linejoin:miter;stroke:rgb(100%,90.980392%,68.235294%);stroke-opacity:1;stroke-miterlimit:4;" d="M 313.502083 516.488636 C 313.502083 516.488636 321.779167 502.012784 313.502083 443.987216 C 305.225 386.022727 201.972917 209.991477 224.508333 279.011364 C 231.81875 301.549716 261.725 364.522727 300.029167 364.522727 C 316.522917 364.522727 334.527083 359.025568 342.01875 349.985795 C 349.510417 341.007102 354.1625 322.011364 349.510417 303.992898 C 344.797917 285.852273 332.533333 262.703125 326.491667 252.014205 C 325.8875 250.975852 324.558333 251.525568 324.920833 252.625 C 328.847917 265.451705 338.333333 292.754261 349.510417 297.518466 C 367.9375 305.336648 389.022917 249.99858 389.022917 249.99858 " transform="matrix(0.0646552,0,0,0.0639535,0,0)"/>
<path style="fill:none;stroke-width:12;stroke-linecap:butt;stroke-linejoin:miter;stroke:rgb(100%,90.980392%,68.235294%);stroke-opacity:1;stroke-miterlimit:4;" d="M 239.491667 282.492898 C 239.491667 282.492898 274.472917 207.487216 288.972917 282.492898 C 299.7875 338.197443 279.4875 351.512784 279.4875 351.512784 " transform="matrix(0.0646552,0,0,0.0639535,0,0)"/>
<path style="fill:none;stroke-width:12;stroke-linecap:butt;stroke-linejoin:miter;stroke:rgb(100%,90.980392%,68.235294%);stroke-opacity:1;stroke-miterlimit:4;" d="M 342.502083 351.512784 C 342.502083 351.512784 384.008333 366.232955 409.020833 351.512784 C 428.475 340.02983 458.139583 270.948864 459.529167 255.007102 C 462.489583 219.519886 389.86875 344.977273 378.027083 399.521307 C 367.152083 449.362216 375.00625 532.002841 375.00625 532.002841 " transform="matrix(0.0646552,0,0,0.0639535,0,0)"/>
<path style=" stroke:none;fill-rule:nonzero;fill:rgb(100%,90.980392%,68.235294%);fill-opacity:1;" d="M 25.539062 15.988281 C 25.539062 16.199219 25.363281 16.371094 25.152344 16.371094 C 24.9375 16.371094 24.761719 16.199219 24.761719 15.988281 C 24.761719 15.777344 24.9375 15.605469 25.152344 15.605469 C 25.363281 15.605469 25.539062 15.777344 25.539062 15.988281 Z M 25.539062 15.988281 "/>
</g>
</svg>